<?xml version="1.0" encoding="UTF-8" standalone="no"?>
<!-- Uploaded to: SVG Repo, www.svgrepo.com, Generator: SVG Repo Mixer Tools -->

<svg
   width="800px"
   height="800px"
   viewBox="0 0 24 24"
   fill="none"
   version="1.1"
   id="svg6"
   sodipodi:docname="mirror-right-svgrepo-com.svg"
   inkscape:version="1.1.2 (0a00cf5339, 2022-02-04)"
   xmlns:inkscape="http://www.inkscape.org/namespaces/inkscape"
   xmlns:sodipodi="http://sodipodi.sourceforge.net/DTD/sodipodi-0.dtd"
   xmlns="http://www.w3.org/2000/svg"
   xmlns:svg="http://www.w3.org/2000/svg">
  <defs
     id="defs10" />
  <sodipodi:namedview
     id="namedview8"
     pagecolor="#ffffff"
     bordercolor="#000000"
     borderopacity="0.25"
     inkscape:pageshadow="2"
     inkscape:pageopacity="0.0"
     inkscape:pagecheckerboard="0"
     showgrid="false"
     inkscape:zoom="0.8275"
     inkscape:cx="400"
     inkscape:cy="399.39577"
     inkscape:window-width="1433"
     inkscape:window-height="938"
     inkscape:window-x="0"
     inkscape:window-y="0"
     inkscape:window-maximized="1"
     inkscape:current-layer="svg6" />
  <path
     fill-rule="evenodd"
     clip-rule="evenodd"
     d="m 3.6381123,2.0346154 c 0,0.019117 -0.015499,0.034615 -0.034615,0.034615 h -0.041958 c -0.020132,0 -0.038525,4e-7 -0.055497,1.467e-4 -0.019117,1.648e-4 -0.034748,-0.015199 -0.034913,-0.034315 -1.648e-4,-0.019117 0.015199,-0.034748 0.034316,-0.034913 C 3.5227438,2 3.5414172,2 3.5614392,2 h 0.042058 c 0.019117,0 0.034615,0.015498 0.034615,0.034615 z m 0,0.8307692 C 3.6381123,2.8845015 3.6226138,2.9 3.6034969,2.9 h -0.042065 c -0.020019,0 -0.03869,0 -0.055988,-1.477e-4 -0.019117,-1.661e-4 -0.034481,-0.015799 -0.034316,-0.034915 1.652e-4,-0.019117 0.015796,-0.034482 0.034913,-0.034315 0.016972,1.477e-4 0.035364,1.477e-4 0.055497,1.477e-4 h 0.041958 c 0.019117,0 0.034615,0.015498 0.034615,0.034615 z M 3.4059455,2.0371354 c 0.00567,0.018256 -0.00453,0.037656 -0.022782,0.043329 -0.014824,0.00461 -0.025141,0.010807 -0.033517,0.019182 -0.00838,0.00838 -0.014575,0.018692 -0.019182,0.033517 -0.00567,0.018256 -0.025073,0.028456 -0.043329,0.022782 -0.018256,-0.00567 -0.028456,-0.025073 -0.022782,-0.043329 0.00739,-0.023787 0.018821,-0.044404 0.03634,-0.061923 0.017519,-0.01752 0.038136,-0.028947 0.061923,-0.03634 0.018257,-0.00567 0.037656,0.00453 0.043329,0.022782 z m 0,0.8257292 c -0.00567,0.018258 -0.025073,0.028459 -0.043329,0.022782 -0.023787,-0.00739 -0.044404,-0.018822 -0.061923,-0.036337 -0.01752,-0.01752 -0.028947,-0.038137 -0.03634,-0.061925 -0.00567,-0.018258 0.00453,-0.037657 0.022782,-0.043329 0.018256,-0.00567 0.037656,0.00453 0.043329,0.022781 0.00461,0.014825 0.010807,0.02514 0.019182,0.033517 0.00838,0.00838 0.018692,0.014575 0.033517,0.019182 0.018256,0.00567 0.028456,0.025071 0.022782,0.043329 z M 3.2850622,2.2211286 c 0.019116,1.652e-4 0.03448,0.015796 0.034315,0.034913 -1.463e-4,0.016973 -1.467e-4,0.035365 -1.467e-4,0.055497 v 0.062935 c 0,0.019117 -0.015498,0.034615 -0.034615,0.034615 C 3.265498,2.4090892 3.25,2.3935908 3.25,2.3744738 v -0.063042 c 0,-0.020019 0,-0.03869 1.495e-4,-0.055988 1.648e-4,-0.019116 0.015796,-0.03448 0.034913,-0.034315 z m -5e-7,0.4577437 C 3.2659452,2.6790385 3.2503143,2.6636738 3.2501491,2.6445569 3.25,2.6272585 3.25,2.6085846 3.25,2.5885677 v -0.063042 c 0,-0.019117 0.015498,-0.034615 0.034615,-0.034615 0.019117,0 0.034615,0.015494 0.034615,0.034615 v 0.062935 c 0,0.020132 4e-7,0.038525 1.467e-4,0.055495 1.648e-4,0.019117 -0.015199,0.034749 -0.034316,0.034915 z"
     fill="#1C274C"
     id="path2"
     style="fill:#000000;fill-opacity:1;stroke-width:0.0461538"
     inkscape:export-filename="/home/hephaestus/git/CaDoodle-Application/src/main/resources/com/commonwealthrobotics/mirror.png"
     inkscape:export-xdpi="96"
     inkscape:export-ydpi="96" />
  <path
     d="m 4.1153846,2.4961538 v -0.092308 c 0,-0.1740573 0,-0.2610854 -0.054074,-0.3151584 C 4.0108831,2.0382588 3.8916446,2.0348609 3.7346154,2.034632 3.7346154,2.0155142 3.7191169,2 3.7,2 3.6808831,2 3.6653846,2.015498 3.6653846,2.0346154 V 2.8653846 C 3.6653846,2.8845015 3.6808831,2.9 3.7,2.9 3.719117,2.9 3.734615,2.884501 3.734615,2.865385 3.8916442,2.8651542 4.0108827,2.861745 4.0613104,2.811311 4.1153844,2.757242 4.1153844,2.6702094 4.1153846,2.4961538 Z"
     fill="#1C274C"
     id="path4"
     style="fill:#000000;fill-opacity:1;stroke-width:0.0461538"
     inkscape:export-filename="/home/hephaestus/git/CaDoodle-Application/src/main/resources/com/commonwealthrobotics/mirror.png"
     inkscape:export-xdpi="96"
     inkscape:export-ydpi="96" />
</svg>
