<?xml version="1.0" encoding="UTF-8" standalone="no"?>
<!-- Created with Inkscape (http://www.inkscape.org/) -->

<svg
   width="25.087959mm"
   height="25.087959mm"
   viewBox="0 0 25.087959 25.087959"
   version="1.1"
   id="svg5"
   xml:space="preserve"
   inkscape:version="1.1 (c68e22c387, 2021-05-23)"
   sodipodi:docname="CADOODLE_2.svg"
   xmlns:inkscape="http://www.inkscape.org/namespaces/inkscape"
   xmlns:sodipodi="http://sodipodi.sourceforge.net/DTD/sodipodi-0.dtd"
   xmlns="http://www.w3.org/2000/svg"
   xmlns:svg="http://www.w3.org/2000/svg"><sodipodi:namedview
     id="namedview7"
     pagecolor="#ffffff"
     bordercolor="#000000"
     borderopacity="0.25"
     inkscape:showpageshadow="2"
     inkscape:pageopacity="0.0"
     inkscape:pagecheckerboard="0"
     inkscape:deskcolor="#d1d1d1"
     inkscape:document-units="mm"
     showgrid="false"
     inkscape:zoom="5.0572894"
     inkscape:cx="67.031957"
     inkscape:cy="59.023714"
     inkscape:window-width="1920"
     inkscape:window-height="1009"
     inkscape:window-x="-8"
     inkscape:window-y="-8"
     inkscape:window-maximized="1"
     inkscape:current-layer="layer1"
     inkscape:pageshadow="2"
     fit-margin-top="0"
     fit-margin-left="0"
     fit-margin-right="0"
     fit-margin-bottom="0" /><defs
     id="defs2" /><g
     inkscape:label="Layer 1"
     inkscape:groupmode="layer"
     id="layer1"
     transform="translate(-51.834415,-41.037574)"><path
       id="path302"
       style="fill:#000000;stroke-width:0.060919"
       d="m 64.252531,41.070647 c 0.156316,0.0014 0.323163,0.0039 0.503845,0.0078 0.804133,0.01702 1.571817,0.05751 1.705839,0.08992 0.134022,0.0324 0.408232,0.08999 0.609265,0.128158 0.201033,0.03817 0.434038,0.09297 0.517798,0.121956 0.08376,0.02899 0.440392,0.144092 0.7922,0.255282 0.748549,0.236583 2.198983,0.93709 2.89388,1.397847 2.993418,1.98481 4.976837,5.089337 5.52421,8.645467 0.104551,0.679422 0.105235,3.030244 0.001,3.716053 -0.232614,1.53096 -0.824844,3.191822 -1.601969,4.492232 -1.93592,3.239491 -5.048494,5.38404 -8.736418,6.019787 -1.002643,0.172843 -2.860311,0.199538 -3.860229,0.05529 -3.695882,-0.533157 -6.976617,-2.687139 -8.90385,-5.846155 -0.714198,-1.170674 -1.327158,-2.710181 -1.576648,-3.959965 -0.06688,-0.335053 -0.139507,-0.691166 -0.161747,-0.791682 -0.02225,-0.100516 -0.05425,-0.778964 -0.0708,-1.507402 -0.024,-1.055586 -0.009,-1.469757 0.07441,-2.040702 0.53561,-3.66623 2.502168,-6.770744 5.575886,-8.80308 1.101288,-0.728169 2.951945,-1.506756 4.171322,-1.754932 0.888468,-0.180823 1.447747,-0.235479 2.541964,-0.225826 z m -0.257349,1.253153 -0.319877,0.04186 c -0.933332,0.122211 -2.044646,0.371134 -2.867525,0.641822 -1.135557,0.373544 -2.571693,1.074813 -3.239596,1.581815 -1.244419,0.944632 -2.832902,2.662779 -2.832902,3.064412 0,0.139816 0.116974,0.159983 1.284676,0.224793 0.583582,0.03239 2.616632,0.05982 4.518071,0.06046 l 3.457153,0.001 v -2.808097 z m 2.400887,0.02067 v 10.956437 h 3.782198 5.574337 v -0.401526 c 0,-1.008955 -0.669914,-3.349503 -1.327568,-4.638476 -0.422566,-0.828211 -0.99047,-1.598559 -1.778186,-2.412256 -1.136196,-1.173673 -2.254313,-1.993163 -3.626135,-2.658236 -0.94685,-0.459042 -1.775114,-0.728868 -2.624646,-0.845943 z m -12.320695,7.132898 -0.04289,0.575675 c -0.03877,0.517097 0.03341,1.692031 0.133325,2.166276 0.02701,0.128228 0.01234,0.167949 -0.06304,0.167949 -0.0787,0 -0.09819,0.06656 -0.09819,0.333313 0,0.330516 0.0015,0.333367 0.146762,0.267167 0.113817,-0.05185 0.18878,-0.04601 0.334863,0.02687 0.184527,0.09205 0.188102,0.0909 0.188102,-0.05374 0,-0.200802 0.179433,-0.193823 0.429431,0.01654 l 0.19482,0.164332 -0.02377,-0.249081 -0.02377,-0.248563 0.17725,0.148828 c 0.136575,0.114916 0.233313,0.144374 0.425297,0.130224 0.251571,-0.01854 0.317388,-0.0855 0.43925,-0.444934 0.03839,-0.113209 0.04473,-0.110868 0.08578,0.03101 0.07688,0.265731 0.242454,0.542258 0.363802,0.607198 0.317686,0.17002 0.701842,-0.04664 0.888318,-0.500744 0.101588,-0.2474 0.108471,-0.252233 0.149862,-0.106454 0.07485,0.263634 0.240948,0.541998 0.362768,0.607198 0.305421,0.163455 0.670025,-0.02336 0.855762,-0.438216 l 0.10542,-0.235644 0.07545,0.182417 c 0.126773,0.306054 0.308046,0.380575 0.873849,0.360185 0.274591,-0.0099 0.538204,-0.0044 0.585494,0.01189 0.05327,0.01836 0.102861,-0.02814 0.130741,-0.122474 0.02475,-0.08376 0.04786,-0.10821 0.05116,-0.05426 0.0045,0.07224 0.09051,0.106755 0.326078,0.131775 0.175903,0.01868 0.363836,0.05165 0.417546,0.07286 0.08581,0.03388 0.09387,-0.01666 0.06821,-0.416512 -0.01607,-0.250297 -0.01144,-0.550541 0.01034,-0.666626 0.03462,-0.184547 0.07047,-0.218718 0.28577,-0.273368 0.27932,-0.0709 0.255491,-0.102367 0.359668,0.468188 0.07312,0.400476 0.04265,0.490393 -0.166914,0.492993 -0.08199,10e-4 -0.09646,0.132659 -0.03824,0.34985 l 0.03617,0.135909 0.252181,-0.144695 c 0.411691,-0.236061 0.517367,-0.249699 0.583427,-0.07596 0.03142,0.08263 0.119791,0.19389 0.196371,0.24753 0.22361,0.156622 0.550281,0.12574 0.734839,-0.06976 0.257802,-0.273089 0.35455,-0.729521 0.35295,-1.660363 -0.0019,-1.055563 -0.09355,-1.449621 -0.405144,-1.738396 -0.308602,-0.286002 -0.805599,-0.152309 -1.027327,0.276469 -0.14943,0.288965 -0.185526,0.823725 -0.0677,1.003557 0.12854,0.196175 0.465729,0.212783 0.646472,0.03204 0.219944,-0.219944 0.113872,-0.761 -0.162781,-0.83044 -0.177932,-0.04468 -0.177676,-0.09558 0.001,-0.303341 0.180049,-0.209321 0.316465,-0.165434 0.446484,0.143144 0.07884,0.187123 0.08967,0.369223 0.0584,0.990637 -0.04095,0.813286 -0.155432,1.481449 -0.274402,1.600419 -0.124367,0.124367 -0.387703,-0.07497 -0.505913,-0.383439 l -0.104386,-0.272852 -0.0036,0.249081 c -0.0049,0.367743 -0.164164,0.332624 -0.276986,-0.06098 -0.102165,-0.356418 -0.249169,-1.264045 -0.310059,-1.914095 -0.03122,-0.33332 -0.06676,-0.454236 -0.140043,-0.476456 -0.05403,-0.01638 -0.188403,-0.06858 -0.298173,-0.116272 -0.189867,-0.08249 -0.202118,-0.08032 -0.252697,0.05271 -0.05945,0.156375 -0.316777,1.426897 -0.458887,2.266011 -0.06238,0.368325 -0.127131,0.573782 -0.197921,0.625802 -0.08951,0.06578 -0.112205,0.05912 -0.150895,-0.04548 -0.02505,-0.06772 -0.09153,-0.12299 -0.147278,-0.12299 -0.08483,0 -0.09457,-0.04221 -0.0615,-0.258899 0.02173,-0.142398 0.05714,-0.626125 0.07855,-1.07487 0.03278,-0.687104 0.05629,-0.831079 0.150895,-0.912089 0.07796,-0.06675 0.112655,-0.179226 0.112655,-0.36742 V 49.50269 l -0.137459,0.128158 c -0.192195,0.180034 -0.429857,0.258382 -0.784965,0.258382 -0.254076,0 -0.334263,0.02885 -0.478007,0.172599 -0.165017,0.165016 -0.36532,0.683143 -0.36742,0.95033 -5.1e-4,0.06931 -0.02493,0.164013 -0.05426,0.210323 -0.04208,0.06644 -0.06143,0.05768 -0.09302,-0.04186 -0.02202,-0.06937 -0.135866,-0.210063 -0.252697,-0.312642 -0.394703,-0.346553 -0.915622,-0.21604 -1.033529,0.258898 l -0.04237,0.17105 -0.107487,-0.176734 c -0.384209,-0.631784 -1.152605,-0.586071 -1.259871,0.07493 l -0.03669,0.227893 -0.07493,-0.218591 C 55.96939,50.634445 55.678833,50.515301 55.370902,50.879351 l -0.167431,0.19792 0.03876,-0.376204 c 0.02136,-0.207048 0.0923,-0.517479 0.157613,-0.689364 0.08503,-0.223799 0.09836,-0.319353 0.04703,-0.336414 -0.308642,-0.102584 -0.678011,-0.170184 -0.995805,-0.182934 z m 0.638721,0.47594 c 0.0496,-0.01047 0.05879,0.181225 0.05581,0.893485 -0.0022,0.528737 0.01632,1.075164 0.04134,1.214396 0.04152,0.231087 0.03539,0.250896 -0.07235,0.222726 -0.09185,-0.02402 -0.127474,-0.107022 -0.160714,-0.373104 -0.06488,-0.519303 0.01136,-1.840709 0.112138,-1.941484 0.0088,-0.0088 0.01669,-0.01452 0.02377,-0.01602 z m 7.060551,0.434599 c 0.04771,0.0021 0.106525,0.02652 0.17725,0.07286 0.17755,0.116334 0.268133,0.479489 0.153996,0.617017 -0.194931,0.234877 -0.486792,0.0088 -0.486792,-0.377238 0,-0.213958 0.05058,-0.317318 0.155546,-0.312642 z M 53.11626,50.56774 c -0.47189,-0.0063 -0.695565,0.305516 -0.695565,0.964283 0,0.202109 0.0066,0.367385 0.01499,0.366902 0.0084,-5.03e-4 0.22943,-0.0676 0.490926,-0.148828 0.563888,-0.175168 0.565619,-0.173285 0.506429,0.463538 -0.0426,0.458376 -0.171075,0.782381 -0.310058,0.782381 -0.148855,0 -0.172834,-0.127525 -0.04134,-0.219625 0.187328,-0.13121 0.273974,-0.500432 0.158647,-0.676444 -0.116012,-0.177052 -0.407857,-0.185905 -0.576192,-0.01757 -0.227533,0.227533 -0.115031,0.876515 0.179317,1.034045 0.06446,0.03449 0.217768,0.06253 0.340548,0.06253 0.449228,0 0.779081,-0.64227 0.782381,-1.522905 0.0026,-0.70712 -0.222913,-1.031741 -0.752409,-1.082621 -0.03367,-0.0032 -0.06621,-0.0053 -0.09767,-0.0057 z m 6.941695,0.07545 c 0.04981,7.45e-4 0.0887,0.01503 0.110071,0.04599 0.0326,0.04725 0.04256,0.346725 0.02274,0.692464 -0.02702,0.471283 -0.05828,0.626837 -0.137459,0.685747 -0.160212,0.119203 -0.375203,0.08988 -0.538469,-0.07338 -0.125358,-0.125356 -0.149344,-0.208318 -0.149344,-0.513147 0,-0.300225 0.0266,-0.395853 0.153995,-0.547253 0.144141,-0.171301 0.38905,-0.292657 0.538469,-0.290422 z m -6.925159,0.236678 c 0.07466,-0.002 0.15626,0.0203 0.232544,0.07028 0.187836,0.123076 0.192795,0.2436 0.01602,0.36742 -0.282502,0.197871 -0.584166,0.05655 -0.510047,-0.238746 0.03129,-0.124661 0.137052,-0.195596 0.261483,-0.198954 z m 2.297018,0.674378 c 0.155121,-0.01098 0.33766,0.05996 0.460953,0.191202 0.15105,0.160785 0.127628,0.371706 -0.04651,0.417546 -0.220449,0.05803 -0.314036,0.03605 -0.49506,-0.116272 -0.217069,-0.182653 -0.240992,-0.357929 -0.06201,-0.453719 0.04241,-0.0227 0.09092,-0.0351 0.142627,-0.03876 z m 2.850472,10e-4 c 0.09819,0.001 0.199447,0.02206 0.283703,0.06563 0.325643,0.168396 0.427445,0.539932 0.176734,0.644922 -0.399119,0.167139 -0.998458,-0.238942 -0.829407,-0.561723 0.05085,-0.09709 0.205326,-0.15054 0.36897,-0.148829 z m -1.401465,0 c 0.09819,0.001 0.199964,0.02206 0.28422,0.06563 0.325643,0.168396 0.427445,0.539932 0.176733,0.644922 -0.399118,0.167139 -0.998972,-0.238942 -0.829923,-0.561723 0.05085,-0.09709 0.205327,-0.15054 0.36897,-0.148829 z m 18.679996,4.043681 h -9.162748 v 9.254732 c 1.035782,-0.218604 2.107425,-0.568688 2.880444,-0.946712 3.00854,-1.471243 5.304989,-4.238539 6.088001,-7.335987 0.06059,-0.239694 0.129579,-0.597615 0.194303,-0.972033 z m -11.563635,0 H 53.001021 c 0.03115,0.195411 0.07345,0.387866 0.135392,0.625802 0.759993,2.919544 2.764177,5.624607 5.298385,7.150467 1.319931,0.794738 2.691082,1.269054 4.497917,1.556495 0.437602,0.06961 0.855782,0.126607 0.929142,0.126607 h 0.133325 v -5.635315 z" /><circle
       style="fill:none;fill-opacity:1;stroke:#ff0000;stroke-width:0.08796;stroke-linecap:round;stroke-opacity:1"
       id="path981"
       cx="-64.378487"
       cy="53.581608"
       r="12.5"
       transform="scale(-1,1)" /></g></svg>
