<?xml version="1.0" encoding="UTF-8" standalone="no"?>
<!-- Uploaded to: SVG Repo, www.svgrepo.com, Generator: SVG Repo Mixer Tools -->

<svg
   width="800px"
   height="800px"
   viewBox="0 0 24 24"
   fill="none"
   version="1.1"
   id="svg6"
   sodipodi:docname="clipboard-check-svgrepo-com.svg"
   inkscape:version="1.2.2 (b0a8486541, 2022-12-01)"
   inkscape:export-filename="../src/main/resources/com/commonwealthrobotics/paste.png"
   inkscape:export-xdpi="96"
   inkscape:export-ydpi="96"
   xmlns:inkscape="http://www.inkscape.org/namespaces/inkscape"
   xmlns:sodipodi="http://sodipodi.sourceforge.net/DTD/sodipodi-0.dtd"
   xmlns="http://www.w3.org/2000/svg"
   xmlns:svg="http://www.w3.org/2000/svg">
  <defs
     id="defs10" />
  <sodipodi:namedview
     id="namedview8"
     pagecolor="#ffffff"
     bordercolor="#000000"
     borderopacity="0.25"
     inkscape:pageshadow="2"
     inkscape:pageopacity="0.0"
     inkscape:pagecheckerboard="0"
     showgrid="false"
     inkscape:zoom="0.8275"
     inkscape:cx="401.81269"
     inkscape:cy="399.39577"
     inkscape:window-width="1737"
     inkscape:window-height="1133"
     inkscape:window-x="0"
     inkscape:window-y="0"
     inkscape:window-maximized="1"
     inkscape:current-layer="svg6"
     inkscape:showpageshadow="2"
     inkscape:deskcolor="#d1d1d1" />
  <path
     d="M 3.2925249,2 C 3.2552419,2 3.2250189,2.030223 3.2250189,2.067506 V 2.11251 c 0,0.037282 0.030223,0.067506 0.067506,0.067506 H 3.517544 c 0.037281,0 0.067506,-0.030223 0.067506,-0.067506 V 2.0675057 C 3.5850497,2.0302232 3.5548252,2 3.517544,2 Z"
     fill="#1c274c"
     id="path2"
     style="stroke-width:0.0450038;fill:#263d8c;fill-opacity:1"
     inkscape:export-filename="/home/hephaestus/git/CaDoodle-Application/src/main/resources/com/commonwealthrobotics/paste.png"
     inkscape:export-xdpi="96"
     inkscape:export-ydpi="96" />
  <path
     fill-rule="evenodd"
     clip-rule="evenodd"
     d="M 3.1575134,2.0916557 C 3.1009026,2.0948316 3.0651646,2.1038526 3.039544,2.1294733 3,2.1690173 3,2.2326621 3,2.3599523 V 2.629977 C 3,2.7572659 3,2.8209103 3.039544,2.8604551 3.0790879,2.9 3.1427328,2.9 3.270023,2.9 H 3.5400459 C 3.6673347,2.9 3.7309791,2.9 3.770524,2.860455 3.810069,2.82091 3.810069,2.7572658 3.810069,2.6299769 V 2.3599523 c 0,-0.1272902 0,-0.190935 -0.039545,-0.230479 C 3.744903,2.1038523 3.709166,2.0948313 3.6525555,2.0916553 v 0.020854 c 0,0.074565 -0.060445,0.1350114 -0.1350115,0.1350114 H 3.2925249 c -0.074565,0 -0.1350115,-0.060447 -0.1350115,-0.1350114 z m 0.405561,0.3830582 c 0.013632,-0.012718 0.014365,-0.034077 0.00165,-0.047704 -0.012718,-0.013627 -0.034077,-0.014365 -0.047704,-0.00165 L 3.347173,2.5838841 3.2930532,2.5333718 c -0.013628,-0.012718 -0.034986,-0.01198 -0.047705,0.00165 -0.012719,0.013627 -0.011983,0.034986 0.00164,0.047704 l 0.077147,0.072006 c 0.01297,0.012102 0.033096,0.012102 0.046061,0 z"
     fill="#1c274c"
     id="path4"
     style="stroke-width:0.0450038;fill:#263d8c;fill-opacity:1"
     inkscape:export-filename="/home/hephaestus/git/CaDoodle-Application/src/main/resources/com/commonwealthrobotics/paste.png"
     inkscape:export-xdpi="96"
     inkscape:export-ydpi="96" />
</svg>
