<?xml version="1.0" encoding="UTF-8" standalone="no"?>
<!-- Created with Inkscape (http://www.inkscape.org/) -->

<svg
   width="173.60715mm"
   height="43.537071mm"
   viewBox="0 0 173.60715 43.537071"
   version="1.1"
   id="svg5"
   inkscape:version="1.2.2 (b0a8486541, 2022-12-01)"
   sodipodi:docname="fission180-dark.svg"
   inkscape:export-filename="../src/main/resources/com/commonwealthrobotics/light/fission180-dark.png"
   inkscape:export-xdpi="96"
   inkscape:export-ydpi="96"
   xmlns:inkscape="http://www.inkscape.org/namespaces/inkscape"
   xmlns:sodipodi="http://sodipodi.sourceforge.net/DTD/sodipodi-0.dtd"
   xmlns="http://www.w3.org/2000/svg"
   xmlns:svg="http://www.w3.org/2000/svg">
  <sodipodi:namedview
     id="namedview7"
     pagecolor="#ffffff"
     bordercolor="#000000"
     borderopacity="0.25"
     inkscape:showpageshadow="2"
     inkscape:pageopacity="0.0"
     inkscape:pagecheckerboard="0"
     inkscape:deskcolor="#d1d1d1"
     inkscape:document-units="mm"
     showgrid="false"
     inkscape:zoom="1.0900174"
     inkscape:cx="198.16197"
     inkscape:cy="68.34753"
     inkscape:window-width="1737"
     inkscape:window-height="1133"
     inkscape:window-x="0"
     inkscape:window-y="0"
     inkscape:window-maximized="1"
     inkscape:current-layer="layer1" />
  <defs
     id="defs2">
    <rect
       x="142.54097"
       y="97.113564"
       width="140.08952"
       height="90.971367"
       id="rect1441" />
    <rect
       x="309.45648"
       y="78.271271"
       width="445.73871"
       height="133.65596"
       id="rect409" />
  </defs>
  <g
     inkscape:label="Layer 1"
     inkscape:groupmode="layer"
     id="layer1"
     transform="translate(-25.052187,-18.750079)">
    <path
       id="rect254"
       style="fill:#263d8c;stroke-width:1;stroke:#ffffff;stroke-opacity:1;stroke-dasharray:none"
       d="M 25.613393 19.223952 L 25.151923 55.44448 L 36.024644 62.278688 L 36.024644 62.288507 L 36.040147 62.288507 L 36.043247 62.290574 L 36.043247 62.288507 L 76.895534 62.467824 L 77.147715 22.533311 L 36.022577 22.358644 L 25.613393 19.223952 z " />
    <g
       transform="scale(0.26458333)"
       id="text407"
       style="font-size:64px;font-family:'Fira Sans';-inkscape-font-specification:'Fira Sans';white-space:pre;shape-inside:url(#rect409);fill:#263d8c;stroke-width:50.5" />
    <g
       aria-label="Fission 180"
       id="text415"
       style="font-weight:bold;font-size:23.9477px;font-family:'Fira Sans';-inkscape-font-specification:'Fira Sans Bold';fill:#ffffff;stroke-width:0.1;stroke:#000000;stroke-opacity:1;stroke-dasharray:none;fill-opacity:1">
      <path
         d="M 81.148016,46.98077 V 30.385014 h 9.8904 l -0.407111,2.801881 h -5.555866 v 4.406377 h 4.837435 v 2.80188 h -4.837435 v 6.585618 z"
         id="path3216"
         style="stroke:#000000;stroke-opacity:1;stroke-width:0.1;stroke-dasharray:none;fill:#ffffff;fill-opacity:1" />
      <path
         d="M 95.82796,34.264541 V 46.98077 H 92.044224 V 34.264541 Z m -1.915816,-6.705356 q 0.981856,0 1.604496,0.62264 0.646588,0.598693 0.646588,1.532653 0,0.93396 -0.646588,1.556601 -0.62264,0.598692 -1.604496,0.598692 -0.981855,0 -1.604496,-0.598692 -0.62264,-0.622641 -0.62264,-1.556601 0,-0.93396 0.62264,-1.532653 0.622641,-0.62264 1.604496,-0.62264 z"
         id="path3218"
         style="stroke:#000000;stroke-opacity:1;stroke-width:0.1;stroke-dasharray:none;fill:#ffffff;fill-opacity:1" />
      <path
         d="m 103.27569,33.85743 q 1.36501,0 2.5624,0.407111 1.19738,0.407111 2.1074,1.14949 l -1.38897,2.131345 q -1.5566,-0.981856 -3.13715,-0.981856 -0.74238,0 -1.14949,0.263425 -0.38316,0.239477 -0.38316,0.694483 0,0.359216 0.16763,0.598693 0.19158,0.215529 0.74238,0.455006 0.5508,0.239477 1.70029,0.574745 1.98766,0.574745 2.94557,1.508705 0.98185,0.910013 0.98185,2.538456 0,1.293176 -0.74238,2.251084 -0.74238,0.933961 -2.03555,1.436862 -1.29318,0.502902 -2.87373,0.502902 -1.60449,0 -2.993459,-0.502902 -1.365019,-0.502901 -2.322927,-1.388966 l 1.843973,-2.059503 q 1.604493,1.245281 3.376623,1.245281 0.86212,0 1.34107,-0.31132 0.50291,-0.31132 0.50291,-0.886065 0,-0.455006 -0.19159,-0.718431 -0.19158,-0.263425 -0.74237,-0.478954 -0.5508,-0.239477 -1.74819,-0.574745 -1.891865,-0.550797 -2.825825,-1.532653 -0.933961,-0.981856 -0.933961,-2.442665 0,-1.101595 0.622641,-1.963712 0.646587,-0.886065 1.820025,-1.388966 1.19738,-0.52685 2.75399,-0.52685 z"
         id="path3220"
         style="stroke:#000000;stroke-opacity:1;stroke-width:0.1;stroke-dasharray:none;fill:#ffffff;fill-opacity:1" />
      <path
         d="m 114.67479,33.85743 q 1.36502,0 2.5624,0.407111 1.19739,0.407111 2.1074,1.14949 l -1.38897,2.131345 q -1.5566,-0.981856 -3.13715,-0.981856 -0.74238,0 -1.14949,0.263425 -0.38316,0.239477 -0.38316,0.694483 0,0.359216 0.16763,0.598693 0.19159,0.215529 0.74238,0.455006 0.5508,0.239477 1.70029,0.574745 1.98766,0.574745 2.94557,1.508705 0.98185,0.910013 0.98185,2.538456 0,1.293176 -0.74238,2.251084 -0.74238,0.933961 -2.03555,1.436862 -1.29318,0.502902 -2.87373,0.502902 -1.60449,0 -2.99346,-0.502902 -1.36502,-0.502901 -2.32292,-1.388966 l 1.84397,-2.059503 q 1.60449,1.245281 3.37662,1.245281 0.86212,0 1.34108,-0.31132 0.5029,-0.31132 0.5029,-0.886065 0,-0.455006 -0.19158,-0.718431 -0.19159,-0.263425 -0.74238,-0.478954 -0.5508,-0.239477 -1.74819,-0.574745 -1.89186,-0.550797 -2.82582,-1.532653 -0.93396,-0.981856 -0.93396,-2.442665 0,-1.101595 0.62264,-1.963712 0.64658,-0.886065 1.82002,-1.388966 1.19739,-0.52685 2.75399,-0.52685 z"
         id="path3222"
         style="stroke:#000000;stroke-opacity:1;stroke-width:0.1;stroke-dasharray:none;fill:#ffffff;fill-opacity:1" />
      <path
         d="M 125.54704,34.264541 V 46.98077 H 121.7633 V 34.264541 Z m -1.91582,-6.705356 q 0.98186,0 1.6045,0.62264 0.64658,0.598693 0.64658,1.532653 0,0.93396 -0.64658,1.556601 -0.62264,0.598692 -1.6045,0.598692 -0.98186,0 -1.6045,-0.598692 -0.62264,-0.622641 -0.62264,-1.556601 0,-0.93396 0.62264,-1.532653 0.62264,-0.62264 1.6045,-0.62264 z"
         id="path3224"
         style="stroke:#000000;stroke-opacity:1;stroke-width:0.1;stroke-dasharray:none;fill:#ffffff;fill-opacity:1" />
      <path
         d="m 134.02451,33.85743 q 2.92162,0 4.57401,1.796078 1.65239,1.77213 1.65239,4.981121 0,2.035555 -0.76632,3.568208 -0.74238,1.508705 -2.15529,2.346875 -1.38897,0.838169 -3.30479,0.838169 -2.89767,0 -4.57401,-1.77213 -1.65239,-1.796077 -1.65239,-5.005069 0,-2.035555 0.74238,-3.54426 0.76633,-1.532653 2.15529,-2.370822 1.41292,-0.83817 3.32873,-0.83817 z m 0,2.777933 q -1.14949,0 -1.72423,0.981856 -0.57475,0.957908 -0.57475,2.993463 0,2.08345 0.5508,3.041358 0.57475,0.957908 1.74818,0.957908 1.14949,0 1.72424,-0.957908 0.57474,-0.981856 0.57474,-3.017411 0,-2.083449 -0.57474,-3.041357 -0.5508,-0.957909 -1.72424,-0.957909 z"
         id="path3226"
         style="stroke:#000000;stroke-opacity:1;stroke-width:0.1;stroke-dasharray:none;fill:#ffffff;fill-opacity:1" />
      <path
         d="m 149.94973,33.85743 q 1.65239,0 2.58635,1.005804 0.93396,1.005803 0.93396,2.825828 v 9.291708 h -3.78374 v -8.64512 q 0,-0.957908 -0.31132,-1.317123 -0.28737,-0.383164 -0.88606,-0.383164 -1.14949,0 -2.20319,1.652392 v 8.693015 h -3.78374 V 34.264541 h 3.30478 l 0.26343,1.508705 q 0.81422,-0.957908 1.74818,-1.436862 0.95791,-0.478954 2.13135,-0.478954 z"
         id="path3228"
         style="stroke:#000000;stroke-opacity:1;stroke-width:0.1;stroke-dasharray:none;fill:#ffffff;fill-opacity:1" />
      <path
         d="M 169.65866,30.792125 V 46.98077 h -3.71189 v -12.5007 l -3.47242,2.131346 -1.65239,-2.514509 5.46008,-3.304782 z"
         id="path3230"
         style="stroke:#000000;stroke-opacity:1;stroke-width:0.1;stroke-dasharray:none;fill:#ffffff;fill-opacity:1" />
      <path
         d="m 181.60858,38.287755 q 1.62845,0.790274 2.41872,1.86792 0.79027,1.053699 0.79027,2.442666 0,1.317123 -0.76632,2.418718 -0.74238,1.077646 -2.17924,1.724234 -1.43687,0.646588 -3.37663,0.646588 -1.89187,0 -3.30478,-0.62264 -1.38897,-0.646588 -2.13135,-1.700287 -0.74238,-1.077646 -0.74238,-2.39477 0,-2.70609 3.01741,-4.023214 -2.37082,-1.388966 -2.37082,-3.831632 0,-1.293176 0.71843,-2.275031 0.71843,-0.981856 1.98766,-1.532653 1.29318,-0.550797 2.92162,-0.550797 2.46661,0 4.02322,1.125542 1.58054,1.101594 1.58054,3.041358 0,1.077646 -0.64658,2.035554 -0.62264,0.933961 -1.93977,1.628444 z m -2.99346,-5.268494 q -0.91001,0 -1.46081,0.478954 -0.52685,0.478954 -0.52685,1.365019 0,0.814221 0.45501,1.341071 0.47895,0.502902 1.5087,0.93396 l 0.5029,0.191582 q 0.81423,-0.52685 1.12555,-1.101594 0.31132,-0.598693 0.31132,-1.412915 0,-0.814222 -0.50291,-1.293176 -0.47895,-0.502901 -1.41291,-0.502901 z m 0,11.66253 q 1.14949,0 1.77213,-0.574745 0.64659,-0.598692 0.64659,-1.532653 0,-0.981856 -0.5508,-1.532653 -0.5508,-0.574744 -1.93976,-1.077646 L 177.753,39.676721 q -1.62844,0.910013 -1.62844,2.801881 0,1.005804 0.67053,1.604496 0.67054,0.598693 1.82003,0.598693 z"
         id="path3232"
         style="stroke:#000000;stroke-opacity:1;stroke-width:0.1;stroke-dasharray:none;fill:#ffffff;fill-opacity:1" />
      <path
         d="m 192.55266,30.456857 q 2.96952,0 4.52612,2.179241 1.58055,2.17924 1.58055,6.274297 0,4.071109 -1.58055,6.274298 -1.5566,2.203188 -4.52612,2.203188 -2.96951,0 -4.55006,-2.203188 -1.5566,-2.203189 -1.5566,-6.274298 0,-4.095057 1.5566,-6.274297 1.58055,-2.179241 4.55006,-2.179241 z m 0,2.801881 q -0.81422,0 -1.29317,0.526849 -0.47896,0.52685 -0.71843,1.748182 -0.21553,1.221333 -0.21553,3.376626 0,2.155293 0.21553,3.400574 0.23947,1.221332 0.71843,1.748182 0.47895,0.526849 1.29317,0.526849 0.81423,0 1.29318,-0.502902 0.47895,-0.526849 0.69448,-1.748182 0.23948,-1.24528 0.23948,-3.424521 0,-2.179241 -0.23948,-3.400573 -0.21553,-1.245281 -0.69448,-1.748183 -0.47895,-0.502901 -1.29318,-0.502901 z"
         id="path3234"
         style="stroke:#000000;stroke-opacity:1;stroke-width:0.1;stroke-dasharray:none;fill:#ffffff;fill-opacity:1" />
    </g>
    <g
       aria-label="180"
       transform="matrix(0.35299037,0,0,0.35299037,-13.819247,-8.3283828)"
       id="text1439"
       style="font-weight:bold;font-size:64px;font-family:'Fira Sans';-inkscape-font-specification:'Fira Sans Bold';white-space:pre;shape-inside:url(#rect1441);fill:#ffffff;stroke-width:50.5">
      <path
         d="m 166.98902,111.71595 v 43.264 h -9.92 v -33.408 l -9.28,5.696 -4.416,-6.72 14.592,-8.832 z"
         id="path3209" />
      <path
         d="m 198.92506,131.74795 q 4.352,2.112 6.464,4.992 2.112,2.816 2.112,6.528 0,3.52 -2.048,6.464 -1.984,2.88 -5.824,4.608 -3.84,1.728 -9.024,1.728 -5.056,0 -8.832,-1.664 -3.712,-1.728 -5.696,-4.544 -1.984,-2.88 -1.984,-6.4 0,-7.232 8.064,-10.752 -6.336,-3.712 -6.336,-10.24 0,-3.456 1.92,-6.08 1.92,-2.624 5.312,-4.096 3.456,-1.472 7.808,-1.472 6.592,0 10.752,3.008 4.224,2.944 4.224,8.128 0,2.88 -1.728,5.44 -1.664,2.496 -5.184,4.352 z m -8,-14.08 q -2.432,0 -3.904,1.28 -1.408,1.28 -1.408,3.648 0,2.176 1.216,3.584 1.28,1.344 4.032,2.496 l 1.344,0.512 q 2.176,-1.408 3.008,-2.944 0.832,-1.6 0.832,-3.776 0,-2.176 -1.344,-3.456 -1.28,-1.344 -3.776,-1.344 z m 0,31.168 q 3.072,0 4.736,-1.536 1.728,-1.6 1.728,-4.096 0,-2.624 -1.472,-4.096 -1.472,-1.536 -5.184,-2.88 l -2.112,-0.768 q -4.352,2.432 -4.352,7.488 0,2.688 1.792,4.288 1.792,1.6 4.864,1.6 z"
         id="path3211" />
      <path
         d="m 228.17302,110.81995 q 7.936,0 12.096,5.824 4.224,5.824 4.224,16.768 0,10.88 -4.224,16.768 -4.16,5.888 -12.096,5.888 -7.936,0 -12.16,-5.888 -4.16,-5.888 -4.16,-16.768 0,-10.944 4.16,-16.768 4.224,-5.824 12.16,-5.824 z m 0,7.488 q -2.176,0 -3.456,1.408 -1.28,1.408 -1.92,4.672 -0.576,3.264 -0.576,9.024 0,5.76 0.576,9.088 0.64,3.264 1.92,4.672 1.28,1.408 3.456,1.408 2.176,0 3.456,-1.344 1.28,-1.408 1.856,-4.672 0.64,-3.328 0.64,-9.152 0,-5.824 -0.64,-9.088 -0.576,-3.328 -1.856,-4.672 -1.28,-1.344 -3.456,-1.344 z"
         id="path3213" />
    </g>
  </g>
</svg>
