<?xml version="1.0" encoding="UTF-8" standalone="no"?>
<!-- Created with Inkscape (http://www.inkscape.org/) -->

<svg
   width="241.35568mm"
   height="44.671158mm"
   viewBox="0 0 241.35569 44.671158"
   version="1.1"
   id="svg5"
   inkscape:version="1.2.2 (b0a8486541, 2022-12-01)"
   sodipodi:docname="fission180-dark.svg"
   inkscape:export-filename="../src/main/resources/com/commonwealthrobotics/light/fission180-dark.png"
   inkscape:export-xdpi="96"
   inkscape:export-ydpi="96"
   xmlns:inkscape="http://www.inkscape.org/namespaces/inkscape"
   xmlns:sodipodi="http://sodipodi.sourceforge.net/DTD/sodipodi-0.dtd"
   xmlns="http://www.w3.org/2000/svg"
   xmlns:svg="http://www.w3.org/2000/svg">
  <sodipodi:namedview
     id="namedview7"
     pagecolor="#ffffff"
     bordercolor="#000000"
     borderopacity="0.25"
     inkscape:showpageshadow="2"
     inkscape:pageopacity="0.0"
     inkscape:pagecheckerboard="0"
     inkscape:deskcolor="#d1d1d1"
     inkscape:document-units="mm"
     showgrid="false"
     inkscape:zoom="1.0900174"
     inkscape:cx="199.07939"
     inkscape:cy="69.264949"
     inkscape:window-width="1737"
     inkscape:window-height="1133"
     inkscape:window-x="66"
     inkscape:window-y="32"
     inkscape:window-maximized="1"
     inkscape:current-layer="layer1" />
  <defs
     id="defs2">
    <rect
       x="142.54097"
       y="97.113564"
       width="140.08952"
       height="90.971367"
       id="rect1441" />
    <rect
       x="309.45648"
       y="78.271271"
       width="445.73871"
       height="133.65596"
       id="rect409" />
  </defs>
  <g
     inkscape:label="Layer 1"
     inkscape:groupmode="layer"
     id="layer1"
     transform="translate(-24.648391,-18.553757)">
    <path
       id="rect254"
       style="fill:#263d8c;stroke:#ffffff;stroke-width:1;stroke-dasharray:none;stroke-opacity:1"
       d="m 25.613393,19.223952 -0.46147,36.220528 10.872721,6.834208 v 0.0098 h 0.0155 l 0.0031,0.0021 v -0.0021 l 40.852287,0.179317 0.252181,-39.934513 -41.125138,-0.174667 z" />
    <g
       transform="scale(0.26458333)"
       id="text407"
       style="font-size:64px;font-family:'Fira Sans';-inkscape-font-specification:'Fira Sans';white-space:pre;shape-inside:url(#rect409);fill:#263d8c;stroke-width:50.5" />
    <g
       aria-label="180"
       transform="matrix(0.35299037,0,0,0.35299037,-13.819247,-8.3283828)"
       id="text1439"
       style="font-weight:bold;font-size:64px;font-family:'Fira Sans';-inkscape-font-specification:'Fira Sans Bold';white-space:pre;shape-inside:url(#rect1441);fill:#ffffff;stroke-width:50.5">
      <path
         d="m 166.98902,111.71595 v 43.264 h -9.92 v -33.408 l -9.28,5.696 -4.416,-6.72 14.592,-8.832 z"
         id="path3209" />
      <path
         d="m 198.92506,131.74795 q 4.352,2.112 6.464,4.992 2.112,2.816 2.112,6.528 0,3.52 -2.048,6.464 -1.984,2.88 -5.824,4.608 -3.84,1.728 -9.024,1.728 -5.056,0 -8.832,-1.664 -3.712,-1.728 -5.696,-4.544 -1.984,-2.88 -1.984,-6.4 0,-7.232 8.064,-10.752 -6.336,-3.712 -6.336,-10.24 0,-3.456 1.92,-6.08 1.92,-2.624 5.312,-4.096 3.456,-1.472 7.808,-1.472 6.592,0 10.752,3.008 4.224,2.944 4.224,8.128 0,2.88 -1.728,5.44 -1.664,2.496 -5.184,4.352 z m -8,-14.08 q -2.432,0 -3.904,1.28 -1.408,1.28 -1.408,3.648 0,2.176 1.216,3.584 1.28,1.344 4.032,2.496 l 1.344,0.512 q 2.176,-1.408 3.008,-2.944 0.832,-1.6 0.832,-3.776 0,-2.176 -1.344,-3.456 -1.28,-1.344 -3.776,-1.344 z m 0,31.168 q 3.072,0 4.736,-1.536 1.728,-1.6 1.728,-4.096 0,-2.624 -1.472,-4.096 -1.472,-1.536 -5.184,-2.88 l -2.112,-0.768 q -4.352,2.432 -4.352,7.488 0,2.688 1.792,4.288 1.792,1.6 4.864,1.6 z"
         id="path3211" />
      <path
         d="m 228.17302,110.81995 q 7.936,0 12.096,5.824 4.224,5.824 4.224,16.768 0,10.88 -4.224,16.768 -4.16,5.888 -12.096,5.888 -7.936,0 -12.16,-5.888 -4.16,-5.888 -4.16,-16.768 0,-10.944 4.16,-16.768 4.224,-5.824 12.16,-5.824 z m 0,7.488 q -2.176,0 -3.456,1.408 -1.28,1.408 -1.92,4.672 -0.576,3.264 -0.576,9.024 0,5.76 0.576,9.088 0.64,3.264 1.92,4.672 1.28,1.408 3.456,1.408 2.176,0 3.456,-1.344 1.28,-1.408 1.856,-4.672 0.64,-3.328 0.64,-9.152 0,-5.824 -0.64,-9.088 -0.576,-3.328 -1.856,-4.672 -1.28,-1.344 -3.456,-1.344 z"
         id="path3213" />
    </g>
    <g
       aria-label="CaDoodle Advanced"
       id="text1077"
       style="font-weight:bold;font-size:20.9442px;font-family:'Fira Sans';-inkscape-font-specification:'Fira Sans Bold';fill:#ffffff;fill-opacity:1;stroke:#020303;stroke-width:1.06017;stroke-opacity:1"
       transform="translate(0.17290837,-0.15956015)">
      <path
         d="m 84.761986,32.229185 q 1.361373,0 2.408583,0.39794 1.068154,0.39794 2.010643,1.193819 l -1.633648,1.947811 q -0.64927,-0.502661 -1.277596,-0.753991 -0.628326,-0.251331 -1.340429,-0.251331 -1.466094,0 -2.324806,1.235708 -0.837768,1.235708 -0.837768,3.811845 0,2.534248 0.837768,3.769956 0.858712,1.214763 2.366695,1.214763 0.795879,0 1.44515,-0.293218 0.64927,-0.314163 1.403261,-0.879657 l 1.528927,1.968755 q -0.816824,0.816824 -1.989699,1.340429 -1.151931,0.523605 -2.555193,0.523605 -2.010643,0 -3.497681,-0.879657 -1.487039,-0.879656 -2.324807,-2.59708 -0.816823,-1.738369 -0.816823,-4.167896 0,-2.366695 0.837768,-4.084119 0.858712,-1.717425 2.34575,-2.597081 1.507982,-0.900601 3.413905,-0.900601 z"
         id="path1147"
         style="fill:#ffffff;fill-opacity:1;stroke:#020303;stroke-opacity:1" />
      <path
         d="m 99.443882,43.874161 q 0,0.628326 0.167553,0.921544 0.188498,0.293219 0.586435,0.439829 l -0.691156,2.157252 q -1.026266,-0.08378 -1.675536,-0.439828 -0.64927,-0.376996 -1.005321,-1.172875 -1.089099,1.675536 -3.351073,1.675536 -1.654591,0 -2.638969,-0.963433 -0.984377,-0.963434 -0.984377,-2.513304 0,-1.822146 1.340429,-2.785579 1.340428,-0.963433 3.874677,-0.963433 h 1.130987 v -0.481717 q 0,-0.984377 -0.418884,-1.340429 -0.418884,-0.376995 -1.466094,-0.376995 -0.54455,0 -1.319485,0.167553 -0.774936,0.14661 -1.591759,0.418884 l -0.753992,-2.178197 q 1.04721,-0.397939 2.136309,-0.607381 1.110042,-0.209442 2.052532,-0.209442 2.387638,0 3.497681,0.984377 1.110043,0.984377 1.110043,2.953132 z m -5.005664,1.214763 q 1.130987,0 1.759313,-1.068154 v -1.968755 h -0.816824 q -1.130987,0 -1.696481,0.39794 -0.544549,0.39794 -0.544549,1.235708 0,0.670214 0.335107,1.04721 0.356052,0.356051 0.963434,0.356051 z"
         id="path1149"
         style="fill:#ffffff;fill-opacity:1;stroke:#020303;stroke-opacity:1" />
      <path
         d="m 106.18792,32.585236 q 3.41391,0 5.46644,1.549871 2.07347,1.528927 2.07347,5.63399 0,4.042231 -2.01064,5.696823 -2.01064,1.633647 -5.21511,1.633647 h -4.35639 V 32.585236 Z m -0.60738,2.49236 v 9.529612 h 1.13099 q 1.69648,0 2.57613,-1.04721 0.87966,-1.068155 0.87966,-3.790901 0,-1.864034 -0.43983,-2.890299 -0.43983,-1.026266 -1.19382,-1.403262 -0.75399,-0.39794 -1.86403,-0.39794 z"
         id="path1151"
         style="fill:#ffffff;fill-opacity:1;stroke:#020303;stroke-opacity:1" />
      <path
         d="m 120.53472,35.622146 q 2.55519,0 4.00034,1.570815 1.44515,1.54987 1.44515,4.356393 0,1.780257 -0.67021,3.120686 -0.64927,1.319485 -1.88498,2.052532 -1.21476,0.733047 -2.8903,0.733047 -2.53425,0 -4.00034,-1.549871 -1.44515,-1.570815 -1.44515,-4.377338 0,-1.780257 0.64927,-3.099742 0.67021,-1.340428 1.88498,-2.073475 1.2357,-0.733047 2.91124,-0.733047 z m 0,2.429527 q -1.00532,0 -1.50798,0.858712 -0.50266,0.837768 -0.50266,2.618025 0,1.822146 0.48171,2.659914 0.50266,0.837768 1.52893,0.837768 1.00532,0 1.50798,-0.837768 0.50266,-0.858713 0.50266,-2.63897 0,-1.822145 -0.50266,-2.659913 -0.48171,-0.837768 -1.50798,-0.837768 z"
         id="path1153"
         style="fill:#ffffff;fill-opacity:1;stroke:#020303;stroke-opacity:1" />
      <path
         d="m 132.76612,35.622146 q 2.5552,0 4.00035,1.570815 1.44515,1.54987 1.44515,4.356393 0,1.780257 -0.67022,3.120686 -0.64927,1.319485 -1.88498,2.052532 -1.21476,0.733047 -2.8903,0.733047 -2.53424,0 -4.00034,-1.549871 -1.44515,-1.570815 -1.44515,-4.377338 0,-1.780257 0.64927,-3.099742 0.67022,-1.340428 1.88498,-2.073475 1.23571,-0.733047 2.91124,-0.733047 z m 0,2.429527 q -1.00532,0 -1.50798,0.858712 -0.50266,0.837768 -0.50266,2.618025 0,1.822146 0.48172,2.659914 0.50266,0.837768 1.52892,0.837768 1.00533,0 1.50799,-0.837768 0.50266,-0.858713 0.50266,-2.63897 0,-1.822145 -0.50266,-2.659913 -0.48172,-0.837768 -1.50799,-0.837768 z"
         id="path1155"
         style="fill:#ffffff;fill-opacity:1;stroke:#020303;stroke-opacity:1" />
      <path
         d="m 150.1498,31.558971 v 15.540596 h -2.93218 l -0.16756,-1.29854 q -1.17287,1.654592 -3.16257,1.654592 -2.07348,0 -3.16258,-1.591759 -1.06815,-1.59176 -1.06815,-4.356394 0,-1.69648 0.56549,-3.036909 0.5655,-1.340429 1.59176,-2.09442 1.04721,-0.753991 2.38764,-0.753991 1.59176,0 2.63897,1.04721 v -5.466437 z m -5.23605,13.467121 q 1.15194,0 1.92687,-1.256652 v -4.796222 q -0.39794,-0.481717 -0.81682,-0.712103 -0.39794,-0.230386 -0.92155,-0.230386 -0.92154,0 -1.46609,0.858712 -0.54455,0.858712 -0.54455,2.638969 0,1.947811 0.46077,2.722746 0.48172,0.774936 1.36137,0.774936 z"
         id="path1157"
         style="fill:#ffffff;fill-opacity:1;stroke:#020303;stroke-opacity:1" />
      <path
         d="m 155.70002,47.455619 q -1.44515,0 -2.26197,-0.816824 -0.79588,-0.837768 -0.79588,-2.366695 V 31.558971 l 3.30918,-0.356052 v 12.943516 q 0,0.691159 0.5655,0.691159 0.29321,0 0.54454,-0.104721 l 0.64927,2.34575 q -0.9006,0.376996 -2.01064,0.376996 z"
         id="path1159"
         style="fill:#ffffff;fill-opacity:1;stroke:#020303;stroke-opacity:1" />
      <path
         d="m 168.5598,41.318968 q 0,0.691159 -0.0628,1.19382 h -6.89064 q 0.16755,1.403261 0.79587,1.968754 0.62833,0.565494 1.73837,0.565494 0.67022,0 1.29854,-0.230386 0.62833,-0.251331 1.36138,-0.753992 l 1.36137,1.84309 q -1.94781,1.549871 -4.33545,1.549871 -2.7018,0 -4.14695,-1.591759 -1.44515,-1.59176 -1.44515,-4.272617 0,-1.696481 0.60738,-3.036909 0.60738,-1.361373 1.78026,-2.136309 1.17287,-0.795879 2.80652,-0.795879 2.40858,0 3.76996,1.507982 1.36137,1.507982 1.36137,4.18884 z m -3.24635,-0.942489 q -0.0419,-2.555192 -1.8012,-2.555192 -0.85871,0 -1.34043,0.628326 -0.46077,0.628326 -0.56549,2.073475 h 3.70712 z"
         id="path1161"
         style="fill:#ffffff;fill-opacity:1;stroke:#020303;stroke-opacity:1" />
      <path
         d="m 183.09506,47.099567 -0.75399,-3.120685 h -4.23073 l -0.73304,3.120685 h -3.56052 l 4.37734,-14.514331 h 4.1679 l 4.37734,14.514331 z m -4.39828,-5.613045 h 3.05786 l -1.52893,-6.408926 z"
         id="path1163"
         style="fill:#ffffff;fill-opacity:1;stroke:#020303;stroke-opacity:1" />
      <path
         d="m 197.71412,31.558971 v 15.540596 h -2.93219 l -0.16756,-1.29854 q -1.17287,1.654592 -3.16257,1.654592 -2.07348,0 -3.16257,-1.591759 -1.06816,-1.59176 -1.06816,-4.356394 0,-1.69648 0.5655,-3.036909 0.56549,-1.340429 1.59175,-2.09442 1.04721,-0.753991 2.38764,-0.753991 1.59176,0 2.63897,1.04721 v -5.466437 z m -5.23605,13.467121 q 1.15193,0 1.92686,-1.256652 v -4.796222 q -0.39794,-0.481717 -0.81682,-0.712103 -0.39794,-0.230386 -0.92155,-0.230386 -0.92154,0 -1.46609,0.858712 -0.54455,0.858712 -0.54455,2.638969 0,1.947811 0.46077,2.722746 0.48172,0.774936 1.36138,0.774936 z"
         id="path1165"
         style="fill:#ffffff;fill-opacity:1;stroke:#020303;stroke-opacity:1" />
      <path
         d="m 209.8827,35.978197 -3.49768,11.12137 h -3.91656 L 198.887,35.978197 h 3.6024 l 1.96876,8.608066 2.05253,-8.608066 z"
         id="path1167"
         style="fill:#ffffff;fill-opacity:1;stroke:#020303;stroke-opacity:1" />
      <path
         d="m 219.43329,43.874161 q 0,0.628326 0.16755,0.921544 0.1885,0.293219 0.58644,0.439829 l -0.69116,2.157252 q -1.02627,-0.08378 -1.67554,-0.439828 -0.64927,-0.376996 -1.00532,-1.172875 -1.0891,1.675536 -3.35107,1.675536 -1.65459,0 -2.63897,-0.963433 -0.98438,-0.963434 -0.98438,-2.513304 0,-1.822146 1.34043,-2.785579 1.34043,-0.963433 3.87468,-0.963433 h 1.13099 v -0.481717 q 0,-0.984377 -0.41889,-1.340429 -0.41888,-0.376995 -1.46609,-0.376995 -0.54455,0 -1.31949,0.167553 -0.77493,0.14661 -1.59175,0.418884 l -0.754,-2.178197 q 1.04721,-0.397939 2.13631,-0.607381 1.11005,-0.209442 2.05253,-0.209442 2.38764,0 3.49769,0.984377 1.11004,0.984377 1.11004,2.953132 z m -5.00567,1.214763 q 1.13099,0 1.75932,-1.068154 v -1.968755 h -0.81683 q -1.13098,0 -1.69648,0.39794 -0.54455,0.39794 -0.54455,1.235708 0,0.670214 0.33511,1.04721 0.35605,0.356051 0.96343,0.356051 z"
         id="path1169"
         style="fill:#ffffff;fill-opacity:1;stroke:#020303;stroke-opacity:1" />
      <path
         d="m 228.58591,35.622146 q 1.44515,0 2.26198,0.879656 0.81682,0.879656 0.81682,2.471416 v 8.126349 h -3.30918 v -7.560856 q 0,-0.837768 -0.27228,-1.151931 -0.25133,-0.335107 -0.77493,-0.335107 -1.00532,0 -1.92687,1.44515 v 7.602744 h -3.30918 v -11.12137 h 2.8903 l 0.23038,1.319485 q 0.71211,-0.837768 1.52893,-1.256652 0.83777,-0.418884 1.86403,-0.418884 z"
         id="path1171"
         style="fill:#ffffff;fill-opacity:1;stroke:#020303;stroke-opacity:1" />
      <path
         d="m 238.97423,35.622146 q 1.15193,0 2.07347,0.335107 0.92155,0.335107 1.73837,1.026266 l -1.4242,1.968754 q -1.04721,-0.795879 -2.11537,-0.795879 -1.11004,0 -1.67553,0.816824 -0.5655,0.816823 -0.5655,2.638969 0,1.759313 0.5655,2.49236 0.56549,0.733047 1.63364,0.733047 0.5655,0 1.02627,-0.167554 0.46077,-0.188498 1.11004,-0.586437 l 1.44515,2.052531 q -1.65459,1.319485 -3.74901,1.319485 -1.69648,0 -2.93219,-0.712103 -1.23571,-0.733047 -1.90592,-2.031587 -0.67022,-1.319485 -0.67022,-3.078798 0,-1.759313 0.67022,-3.120686 0.67021,-1.361373 1.90592,-2.115364 1.23571,-0.774935 2.86936,-0.774935 z"
         id="path1173"
         style="fill:#ffffff;fill-opacity:1;stroke:#020303;stroke-opacity:1" />
      <path
         d="m 253.46761,41.318968 q 0,0.691159 -0.0628,1.19382 h -6.89064 q 0.16755,1.403261 0.79588,1.968754 0.62832,0.565494 1.73837,0.565494 0.67021,0 1.29854,-0.230386 0.62832,-0.251331 1.36137,-0.753992 l 1.36137,1.84309 q -1.94781,1.549871 -4.33545,1.549871 -2.7018,0 -4.14695,-1.591759 -1.44515,-1.59176 -1.44515,-4.272617 0,-1.696481 0.60738,-3.036909 0.60739,-1.361373 1.78026,-2.136309 1.17288,-0.795879 2.80652,-0.795879 2.40859,0 3.76996,1.507982 1.36137,1.507982 1.36137,4.18884 z m -3.24635,-0.942489 q -0.0419,-2.555192 -1.8012,-2.555192 -0.85871,0 -1.34043,0.628326 -0.46077,0.628326 -0.56549,2.073475 h 3.70712 z"
         id="path1175"
         style="fill:#ffffff;fill-opacity:1;stroke:#020303;stroke-opacity:1" />
      <path
         d="m 265.30108,31.558971 v 15.540596 h -2.93219 l -0.16756,-1.29854 q -1.17287,1.654592 -3.16257,1.654592 -2.07348,0 -3.16257,-1.591759 -1.06816,-1.59176 -1.06816,-4.356394 0,-1.69648 0.5655,-3.036909 0.56549,-1.340429 1.59175,-2.09442 1.04721,-0.753991 2.38764,-0.753991 1.59176,0 2.63897,1.04721 v -5.466437 z m -5.23605,13.467121 q 1.15193,0 1.92686,-1.256652 v -4.796222 q -0.39794,-0.481717 -0.81682,-0.712103 -0.39794,-0.230386 -0.92155,-0.230386 -0.92154,0 -1.46609,0.858712 -0.54455,0.858712 -0.54455,2.638969 0,1.947811 0.46077,2.722746 0.48172,0.774936 1.36138,0.774936 z"
         id="path1177"
         style="fill:#ffffff;fill-opacity:1;stroke:#020303;stroke-opacity:1" />
    </g>
  </g>
</svg>
