<?xml version="1.0" encoding="UTF-8" standalone="no"?>
<!-- Uploaded to: SVG Repo, www.svgrepo.com, Generator: SVG Repo Mixer Tools -->

<svg
   width="800px"
   height="800px"
   viewBox="0 0 24 24"
   fill="none"
   version="1.1"
   id="svg4"
   sodipodi:docname="home-2-svgrepo-com.svg"
   inkscape:version="1.2.2 (b0a8486541, 2022-12-01)"
   inkscape:export-filename="../src/main/resources/com/commonwealthrobotics/home.png"
   inkscape:export-xdpi="96"
   inkscape:export-ydpi="96"
   xmlns:inkscape="http://www.inkscape.org/namespaces/inkscape"
   xmlns:sodipodi="http://sodipodi.sourceforge.net/DTD/sodipodi-0.dtd"
   xmlns="http://www.w3.org/2000/svg"
   xmlns:svg="http://www.w3.org/2000/svg">
  <defs
     id="defs8" />
  <sodipodi:namedview
     id="namedview6"
     pagecolor="#ffffff"
     bordercolor="#000000"
     borderopacity="0.25"
     inkscape:pageshadow="2"
     inkscape:pageopacity="0.0"
     inkscape:pagecheckerboard="0"
     showgrid="false"
     inkscape:zoom="0.8275"
     inkscape:cx="401.81269"
     inkscape:cy="399.39577"
     inkscape:window-width="1737"
     inkscape:window-height="1133"
     inkscape:window-x="0"
     inkscape:window-y="0"
     inkscape:window-maximized="1"
     inkscape:current-layer="svg4"
     inkscape:showpageshadow="2"
     inkscape:deskcolor="#d1d1d1" />
  <path
     fill-rule="evenodd"
     clip-rule="evenodd"
     d="M 2.031152,2.3493644 C 2,2.4062768 2,2.4749294 2,2.612234 V 2.7035 C 2,2.937548 2,3.054578 2.0702942,3.127286 2.140589,3.2 2.2537256,3.2 2.48,3.2 h 0.24 c 0.226272,0 0.339414,0 0.409704,-0.072714 C 3.2,3.054578 3.2,2.937548 3.2,2.7035 V 2.612234 C 3.2,2.4749294 3.2,2.4062768 3.168848,2.3493644 3.137696,2.2924526 3.080786,2.2571306 2.96696,2.1864872 l -0.12,-0.074475 C 2.726636,2.0373374 2.666474,2 2.6,2 2.533526,2 2.4733634,2.0373374 2.3530418,2.1120122 l -0.12,0.074476 C 2.119217,2.2571306 2.062304,2.2924526 2.031152,2.3493644 Z M 2.555,2.96 c 0,0.024852 0.020148,0.045 0.045,0.045 0.024852,0 0.045,-0.020148 0.045,-0.045 V 2.78 C 2.645,2.755148 2.624852,2.735 2.6,2.735 2.575148,2.735 2.555,2.755148 2.555,2.78 Z"
     fill="#1C274C"
     id="path2"
     style="fill:#263d8c;fill-opacity:1;stroke-width:0.06"
     inkscape:export-filename="/home/hephaestus/git/CaDoodle-Application/src/main/resources/com/commonwealthrobotics/home.png"
     inkscape:export-xdpi="45"
     inkscape:export-ydpi="45" />
</svg>
