<?xml version="1.0" encoding="UTF-8" standalone="no"?>
<!-- Uploaded to: SVG Repo, www.svgrepo.com, Generator: SVG Repo Mixer Tools -->

<svg
   width="800px"
   height="800px"
   viewBox="0 0 24 24"
   fill="none"
   version="1.1"
   id="svg4"
   sodipodi:docname="lightbulb-bolt-svgrepo-com.svg"
   inkscape:version="1.2.2 (b0a8486541, 2022-12-01)"
   inkscape:export-filename="../src/main/resources/com/commonwealthrobotics/litBulb.png"
   inkscape:export-xdpi="96"
   inkscape:export-ydpi="96"
   xmlns:inkscape="http://www.inkscape.org/namespaces/inkscape"
   xmlns:sodipodi="http://sodipodi.sourceforge.net/DTD/sodipodi-0.dtd"
   xmlns="http://www.w3.org/2000/svg"
   xmlns:svg="http://www.w3.org/2000/svg">
  <defs
     id="defs8" />
  <sodipodi:namedview
     id="namedview6"
     pagecolor="#ffffff"
     bordercolor="#000000"
     borderopacity="0.25"
     inkscape:pageshadow="2"
     inkscape:pageopacity="0.0"
     inkscape:pagecheckerboard="0"
     showgrid="false"
     inkscape:zoom="0.8275"
     inkscape:cx="401.81269"
     inkscape:cy="400.60423"
     inkscape:window-width="1737"
     inkscape:window-height="1133"
     inkscape:window-x="0"
     inkscape:window-y="0"
     inkscape:window-maximized="1"
     inkscape:current-layer="svg4"
     inkscape:showpageshadow="2"
     inkscape:deskcolor="#d1d1d1" />
  <path
     fill-rule="evenodd"
     clip-rule="evenodd"
     d="M 4.3375,2 C 4.1511037,2 4,2.1546178 4,2.3453489 4,2.447606 4.0434709,2.539514 4.1124365,2.602703 c 0.022987,0.02106 0.040015,0.036666 0.052084,0.047988 0.00603,0.00566 0.010647,0.01008 0.014053,0.013473 0.0017,0.00169 0.003,0.00303 0.00396,0.00407 4.787e-4,5.13e-4 8.387e-4,9.135e-4 0.0011,0.00121 2.56e-4,2.925e-4 3.78e-4,4.41e-4 3.78e-4,4.41e-4 0.010643,0.013442 0.012946,0.016911 0.014318,0.020052 0.00137,0.00314 0.00236,0.00721 0.00504,0.024287 0.00106,0.00675 0.00117,0.018292 0.00117,0.049725 v 0.00135 c -5e-7,0.018409 -1e-6,0.03429 0.00115,0.047322 0.00122,0.013779 0.00392,0.027423 0.011179,0.040284 0.00808,0.014319 0.019698,0.026208 0.033691,0.034474 0.012568,0.00743 0.025903,0.010188 0.039367,0.011439 C 4.30267,2.9 4.3181905,2.9 4.3361815,2.9 h 0.00264 c 0.017991,0 0.033511,0 0.046246,-0.00118 0.013464,-0.00125 0.026797,-0.00401 0.039366,-0.011439 0.013995,-0.00827 0.025614,-0.020155 0.033691,-0.034474 0.00726,-0.012861 0.00996,-0.026505 0.011178,-0.040284 0.00116,-0.013032 0.00116,-0.028913 0.00115,-0.047322 v -0.00135 c 0,-0.031433 1.125e-4,-0.042979 0.00117,-0.049725 0.00269,-0.017078 0.00367,-0.021146 0.00504,-0.024287 0.00137,-0.00314 0.00368,-0.00661 0.014319,-0.020052 0,0 1.125e-4,-1.35e-4 3.78e-4,-4.41e-4 2.61e-4,-3.015e-4 6.21e-4,-7.02e-4 0.0011,-0.00121 9.675e-4,-0.00104 0.00227,-0.00238 0.00396,-0.00407 0.00341,-0.00339 0.00802,-0.00782 0.014054,-0.013473 C 4.522549,2.639369 4.539577,2.623763 4.562563,2.602703 4.63153,2.539514 4.675,2.447606 4.675,2.3453489 4.675,2.1546178 4.5238945,2 4.3375,2 Z M 4.40883,2.795348 H 4.2661723 c 1.337e-4,0.00436 3.352e-4,0.00818 6.39e-4,0.011605 8.348e-4,0.00943 0.00224,0.012847 0.00321,0.014558 0.0027,0.00477 0.00657,0.00873 0.011232,0.011493 0.00167,9.855e-4 0.00502,0.00243 0.014225,0.00328 0.00963,8.955e-4 0.022342,9.27e-4 0.042026,9.27e-4 0.019683,0 0.032391,-3.15e-5 0.042025,-9.27e-4 0.00921,-8.55e-4 0.012555,-0.0023 0.014225,-0.00328 0.00467,-0.00276 0.00854,-0.00672 0.011232,-0.011493 9.63e-4,-0.00171 0.00237,-0.00513 0.00321,-0.014558 3.015e-4,-0.00343 5.04e-4,-0.00724 6.39e-4,-0.011605 z M 4.3874725,2.2779412 c 0.013788,0.010078 0.016978,0.029686 0.00713,0.043795 l -0.05301,0.075937 h 0.063108 c 0.011493,0 0.022023,0.00657 0.027279,0.017028 0.00526,0.010458 0.00436,0.023044 -0.00231,0.032616 l -0.087664,0.1255815 c -0.00985,0.014107 -0.029012,0.017379 -0.0428,0.0073 -0.013788,-0.01008 -0.016983,-0.029686 -0.00713,-0.043794 l 0.05301,-0.075938 h -0.063108 c -0.011493,0 -0.022022,-0.00657 -0.027281,-0.017033 -0.00526,-0.010454 -0.00437,-0.023045 0.00231,-0.032611 l 0.08766,-0.1255828 c 0.00985,-0.014109 0.029012,-0.017377 0.042804,-0.0073 z"
     fill="#1c274c"
     id="path2"
     style="stroke-width:0.045;fill:#263d8c;fill-opacity:1"
     inkscape:export-filename="/home/hephaestus/git/CaDoodle-Application/src/main/resources/com/commonwealthrobotics/litBulb.png"
     inkscape:export-xdpi="96"
     inkscape:export-ydpi="96" />
</svg>
