<?xml version="1.0" encoding="UTF-8" standalone="no"?>
<!-- Uploaded to: SVG Repo, www.svgrepo.com, Generator: SVG Repo Mixer Tools -->

<svg
   width="200.00407"
   height="240.00113"
   viewBox="0 0 6.0001222 7.2000339"
   fill="none"
   version="1.1"
   id="svg4"
   sodipodi:docname="lightbulb-dark-svgrepo-com.svg"
   inkscape:version="1.2.2 (b0a8486541, 2022-12-01)"
   inkscape:export-filename="../src/main/resources/com/commonwealthrobotics/darkBulb.png"
   inkscape:export-xdpi="24"
   inkscape:export-ydpi="24"
   xmlns:inkscape="http://www.inkscape.org/namespaces/inkscape"
   xmlns:sodipodi="http://sodipodi.sourceforge.net/DTD/sodipodi-0.dtd"
   xmlns="http://www.w3.org/2000/svg"
   xmlns:svg="http://www.w3.org/2000/svg">
  <defs
     id="defs8" />
  <sodipodi:namedview
     id="namedview6"
     pagecolor="#ffffff"
     bordercolor="#000000"
     borderopacity="0.25"
     inkscape:pageshadow="2"
     inkscape:pageopacity="0.0"
     inkscape:pagecheckerboard="0"
     showgrid="false"
     inkscape:zoom="1.655"
     inkscape:cx="341.08761"
     inkscape:cy="251.66163"
     inkscape:window-width="1737"
     inkscape:window-height="1133"
     inkscape:window-x="66"
     inkscape:window-y="32"
     inkscape:window-maximized="1"
     inkscape:current-layer="svg4"
     inkscape:showpageshadow="2"
     inkscape:deskcolor="#d1d1d1" />
  <path
     style="fill:#263d8c;fill-opacity:1;stroke-width:0.379473;stroke:none;stroke-opacity:1"
     d="M 3.0000002,0 C 1.3431442,0 0,1.2369423 0,2.762791 0,3.580848 0.38640822,4.316112 0.99943522,4.821624 1.2037642,4.990104 1.3551242,5.114952 1.4624042,5.205528 c 0.0536,0.04528 0.09464,0.08064 0.124916,0.107784 0.01511,0.01352 0.02667,0.02424 0.0352,0.03256 0.0043,0.0041 0.0075,0.0073 0.0098,0.0097 0.0023,0.0023 0.0034,0.0035 0.0034,0.0035 0.0946,0.107536 0.115075,0.135288 0.127271,0.160416 0.01218,0.02512 0.02098,0.05768 0.0448,0.194296 0.0094,0.054 0.0104,0.146336 0.0104,0.3978 v 0.0108 c -5e-6,0.147272 -9e-6,0.27432 0.01022,0.378576 0.01084,0.110232 0.03484,0.219384 0.09937,0.322272 0.07182,0.114552 0.175093,0.209664 0.299475,0.275792 0.111716,0.05944 0.230249,0.0815 0.349929,0.09151 0.113276,0.0095 0.251236,0.0095 0.411156,0.0095 h 0.02347 c 0.15992,0 0.297875,0 0.411075,-0.0094 0.11968,-0.01 0.238196,-0.03208 0.34992,-0.09151 0.1244,-0.06616 0.22768,-0.16124 0.299476,-0.275792 0.06453,-0.102888 0.08853,-0.21204 0.09936,-0.322272 0.01031,-0.104256 0.01031,-0.231304 0.01022,-0.378576 v -0.0108 c 0,-0.251464 10e-4,-0.343832 0.0104,-0.3978 0.02391,-0.136624 0.03262,-0.169168 0.0448,-0.194296 0.01218,-0.02512 0.03271,-0.05288 0.12728,-0.160416 0,0 10e-4,-0.0011 0.0034,-0.0035 0.0023,-0.0024 0.0055,-0.0056 0.0098,-0.0097 0.0086,-0.0083 0.02018,-0.01904 0.0352,-0.03256 0.03031,-0.02712 0.07129,-0.06256 0.124924,-0.107784 0.107336,-0.0906 0.258696,-0.215448 0.463016,-0.383928 0.61304,-0.505512 0.99944,-1.240776 0.99944,-2.058833 0,-1.5258487 -1.34316,-2.762791 -3,-2.762791 z"
     id="path2" />
  <path
     style="fill:#f9f9f9;fill-opacity:1;stroke-width:0.379473;stroke:none;stroke-opacity:1"
     d="m 3.6340442,6.362784 h -1.268068 c 0.0012,0.03488 0.003,0.06544 0.0057,0.09284 0.0074,0.07544 0.01991,0.102776 0.02853,0.116464 0.024,0.03816 0.0584,0.06984 0.09984,0.09194 0.01484,0.0079 0.04462,0.01944 0.126444,0.02624 0.0856,0.0072 0.198596,0.0074 0.373565,0.0074 0.17496,0 0.28792,-2.52e-4 0.373555,-0.0074 0.08187,-0.0068 0.1116,-0.0184 0.126445,-0.02624 0.04151,-0.02208 0.07591,-0.05376 0.09984,-0.09194 0.0086,-0.01368 0.02107,-0.04104 0.02853,-0.116464 0.0027,-0.02744 0.0045,-0.05792 0.0057,-0.09284 z"
     id="path316" />
</svg>
