<?xml version="1.0" encoding="UTF-8" standalone="no"?>
<!-- Uploaded to: SVG Repo, www.svgrepo.com, Generator: SVG Repo Mixer Tools -->

<svg
   width="800px"
   height="800px"
   viewBox="0 0 24 24"
   fill="none"
   version="1.1"
   id="svg4"
   sodipodi:docname="lock-keyhole-unlocked-svgrepo-com.svg"
   inkscape:version="1.1.2 (0a00cf5339, 2022-02-04)"
   xmlns:inkscape="http://www.inkscape.org/namespaces/inkscape"
   xmlns:sodipodi="http://sodipodi.sourceforge.net/DTD/sodipodi-0.dtd"
   xmlns="http://www.w3.org/2000/svg"
   xmlns:svg="http://www.w3.org/2000/svg">
  <defs
     id="defs8" />
  <sodipodi:namedview
     id="namedview6"
     pagecolor="#ffffff"
     bordercolor="#000000"
     borderopacity="0.25"
     inkscape:pageshadow="2"
     inkscape:pageopacity="0.0"
     inkscape:pagecheckerboard="0"
     showgrid="false"
     inkscape:zoom="0.8275"
     inkscape:cx="400"
     inkscape:cy="399.39577"
     inkscape:window-width="1433"
     inkscape:window-height="938"
     inkscape:window-x="0"
     inkscape:window-y="0"
     inkscape:window-maximized="1"
     inkscape:current-layer="svg4" />
  <path
     fill-rule="evenodd"
     clip-rule="evenodd"
     d="m 2.2060241,1.5427711 c 0,-0.125761 0.1019498,-0.2277109 0.2277108,-0.2277109 0.1060612,0 0.1952588,0.072539 0.2205369,0.1707589 0.00448,0.017399 0.022216,0.027873 0.039613,0.023395 0.017401,-0.00448 0.027872,-0.022213 0.023396,-0.039612 C 2.6847807,1.3433354 2.570201,1.25 2.4337349,1.25 2.272042,1.25 2.1409639,1.3810782 2.1409639,1.5427711 v 0.089115 C 2.0926133,1.6354993 2.0611267,1.644612 2.0381114,1.6676304 2,1.7057427 2,1.7670814 2,1.889759 2,2.0124366 2,2.0737754 2.0381114,2.1118877 2.0762228,2.15 2.1375621,2.15 2.260241,2.15 h 0.3469879 c 0.1226776,0 0.1840164,0 0.2221287,-0.038112 0.038112,-0.038112 0.038112,-0.099451 0.038112,-0.2221287 0,-0.1226776 0,-0.1840163 -0.038112,-0.2221286 -0.038112,-0.038112 -0.099451,-0.038112 -0.2221287,-0.038112 H 2.260241 c -0.019584,0 -0.037604,0 -0.054217,1.561e-4 z M 2.5204819,1.889759 c 0,0.04791 -0.038837,0.086747 -0.086747,0.086747 -0.04791,0 -0.086747,-0.038837 -0.086747,-0.086747 0,-0.04791 0.038837,-0.086747 0.086747,-0.086747 0.04791,0 0.086747,0.038837 0.086747,0.086747 z"
     fill="#1C274C"
     id="path2"
     style="fill:#000000;fill-opacity:1;stroke-width:0.0433735"
     inkscape:export-filename="/home/hephaestus/git/CaDoodle-Application/src/main/resources/com/commonwealthrobotics/unlock.png"
     inkscape:export-xdpi="45"
     inkscape:export-ydpi="45" />
</svg>
