<?xml version="1.0" encoding="UTF-8" standalone="no"?>
<!-- Uploaded to: SVG Repo, www.svgrepo.com, Generator: SVG Repo Mixer Tools -->

<svg
   width="800px"
   height="800px"
   viewBox="0 0 24 24"
   fill="none"
   version="1.1"
   id="svg4"
   sodipodi:docname="magnifer-zoom-in-svgrepo-com.svg"
   inkscape:version="1.2.2 (b0a8486541, 2022-12-01)"
   inkscape:export-filename="../src/main/resources/com/commonwealthrobotics/zoomIn.png"
   inkscape:export-xdpi="96"
   inkscape:export-ydpi="96"
   xmlns:inkscape="http://www.inkscape.org/namespaces/inkscape"
   xmlns:sodipodi="http://sodipodi.sourceforge.net/DTD/sodipodi-0.dtd"
   xmlns="http://www.w3.org/2000/svg"
   xmlns:svg="http://www.w3.org/2000/svg">
  <defs
     id="defs8" />
  <sodipodi:namedview
     id="namedview6"
     pagecolor="#ffffff"
     bordercolor="#000000"
     borderopacity="0.25"
     inkscape:pageshadow="2"
     inkscape:pageopacity="0.0"
     inkscape:pagecheckerboard="0"
     showgrid="false"
     inkscape:zoom="0.8275"
     inkscape:cx="401.81269"
     inkscape:cy="400.60423"
     inkscape:window-width="1737"
     inkscape:window-height="1133"
     inkscape:window-x="0"
     inkscape:window-y="0"
     inkscape:window-maximized="1"
     inkscape:current-layer="svg4"
     inkscape:showpageshadow="2"
     inkscape:deskcolor="#d1d1d1" />
  <path
     fill-rule="evenodd"
     clip-rule="evenodd"
     d="m 3.1872965,3.1872965 c 0.016938,-0.016938 0.016938,-0.0444 0,-0.061344 L 2.9673428,2.9060049 C 3.0493087,2.810035 3.0987966,2.6854931 3.0987966,2.5493953 3.0987966,2.2459733 2.8528209,2 2.5493953,2 2.2459733,2 2,2.2459733 2,2.5493953 c 0,0.3034256 0.2459733,0.5494013 0.5493953,0.5494013 0.1360978,0 0.2606397,-0.049488 0.3566096,-0.1314538 l 0.2199477,0.2199537 c 0.016944,0.016938 0.044406,0.016938 0.061344,0 z M 2.5493953,2.3614455 c 0.023958,0 0.043374,0.019419 0.043374,0.043373 V 2.506021 h 0.1012078 c 0.023952,0 0.043374,0.019422 0.043374,0.043374 0,0.023958 -0.019422,0.043374 -0.043374,0.043374 H 2.5927693 v 0.1012078 c 0,0.023952 -0.019416,0.043374 -0.043374,0.043374 -0.023952,0 -0.043374,-0.019422 -0.043374,-0.043374 V 2.5927693 H 2.4048189 c -0.023954,0 -0.043373,-0.019416 -0.043373,-0.043374 0,-0.023952 0.019419,-0.043374 0.043373,-0.043374 H 2.5060214 V 2.4048189 c 0,-0.023954 0.019422,-0.043373 0.043374,-0.043373 z"
     fill="#1C274C"
     id="path2"
     style="fill:#263d8c;fill-opacity:1;stroke-width:0.0599999"
     inkscape:export-filename="/home/hephaestus/git/CaDoodle-Application/src/main/resources/com/commonwealthrobotics/zoomIn.png"
     inkscape:export-xdpi="45"
     inkscape:export-ydpi="45" />
</svg>
