<?xml version="1.0" encoding="UTF-8" standalone="no"?>
<!-- Uploaded to: SVG Repo, www.svgrepo.com, Generator: SVG Repo Mixer Tools -->

<svg
   width="800px"
   height="800px"
   viewBox="0 0 24 24"
   fill="none"
   version="1.1"
   id="svg14"
   sodipodi:docname="magnet-wave-svgrepo-com.svg"
   inkscape:version="1.1.2 (0a00cf5339, 2022-02-04)"
   xmlns:inkscape="http://www.inkscape.org/namespaces/inkscape"
   xmlns:sodipodi="http://sodipodi.sourceforge.net/DTD/sodipodi-0.dtd"
   xmlns="http://www.w3.org/2000/svg"
   xmlns:svg="http://www.w3.org/2000/svg">
  <defs
     id="defs18" />
  <sodipodi:namedview
     id="namedview16"
     pagecolor="#ffffff"
     bordercolor="#000000"
     borderopacity="0.25"
     inkscape:pageshadow="2"
     inkscape:pageopacity="0.0"
     inkscape:pagecheckerboard="0"
     showgrid="false"
     inkscape:zoom="0.8275"
     inkscape:cx="400"
     inkscape:cy="399.39577"
     inkscape:window-width="1433"
     inkscape:window-height="938"
     inkscape:window-x="0"
     inkscape:window-y="0"
     inkscape:window-maximized="1"
     inkscape:current-layer="svg14" />
  <path
     d="M 2.4839021,3 H 2.3724138 C 2.166735,3 2,3.1667354 2,3.3724138 2,3.5780938 2.1667354,3.7448276 2.3724138,3.7448276 H 2.4839021 V 3.5586207 h -0.113789 c -0.1028375,0 -0.1862052,-0.083367 -0.1862052,-0.1862069 0,-0.1028392 0.083368,-0.1862069 0.1862052,-0.1862069 h 0.113789 z"
     fill="#1C274C"
     id="path2"
     style="fill:#000010;fill-opacity:1;stroke-width:0.0413793"
     inkscape:export-filename="/home/hephaestus/git/CaDoodle-Application/src/main/resources/com/commonwealthrobotics/magnet.png"
     inkscape:export-xdpi="96"
     inkscape:export-ydpi="96" />
  <path
     d="M 2.545971,3.1862069 H 2.6 c 0.034279,0 0.062069,-0.027789 0.062069,-0.062069 V 3.062069 C 2.662069,3.0277891 2.6342786,3 2.6,3 H 2.545971 Z"
     fill="#1C274C"
     id="path4"
     style="fill:#000010;fill-opacity:1;stroke-width:0.0413793"
     inkscape:export-filename="/home/hephaestus/git/CaDoodle-Application/src/main/resources/com/commonwealthrobotics/magnet.png"
     inkscape:export-xdpi="96"
     inkscape:export-ydpi="96" />
  <path
     d="M 2.545971,3.5586207 V 3.7448276 H 2.6 c 0.034279,0 0.062069,-0.02779 0.062069,-0.062069 v -0.062069 c 0,-0.034279 -0.02779,-0.062069 -0.062069,-0.062069 z"
     fill="#1C274C"
     id="path6"
     style="fill:#000010;fill-opacity:1;stroke-width:0.0413793"
     inkscape:export-filename="/home/hephaestus/git/CaDoodle-Application/src/main/resources/com/commonwealthrobotics/magnet.png"
     inkscape:export-xdpi="96"
     inkscape:export-ydpi="96" />
  <path
     d="m 2.7512662,3.2332043 c -0.00832,-0.014983 -0.027215,-0.020381 -0.042199,-0.012058 -0.014855,0.00825 -0.020288,0.026898 -0.012269,0.041818 l 2.069e-4,4.233e-4 c 2.855e-4,5.959e-4 8.276e-4,0.00178 0.00155,0.00359 0.00144,0.00361 0.00361,0.0097 0.00586,0.018488 0.0045,0.017546 0.00937,0.045986 0.00937,0.086947 0,0.040961 -0.00487,0.069401 -0.00937,0.086946 -0.00225,0.00878 -0.00442,0.01488 -0.00586,0.018488 -7.241e-4,0.00181 -0.00127,0.003 -0.00155,0.00359 l -2.069e-4,4.221e-4 c -0.00802,0.014921 -0.00259,0.033567 0.012269,0.041818 0.014983,0.00833 0.033877,0.00293 0.042199,-0.012058 l -0.027128,-0.01507 c 0.027128,0.01507 0.027128,0.01507 0.027128,0.01507 l 2.9e-5,-5.38e-5 3.31e-5,-5.8e-5 7.03e-5,-1.241e-4 1.573e-4,-2.938e-4 4.013e-4,-7.614e-4 c 2.98e-4,-5.834e-4 6.662e-4,-0.00132 0.00109,-0.00221 8.483e-4,-0.00178 0.00192,-0.00418 0.00314,-0.00722 0.00243,-0.00609 0.00544,-0.014735 0.00836,-0.026123 0.00585,-0.0228 0.011317,-0.056429 0.011317,-0.1023641 0,-0.045935 -0.00547,-0.079564 -0.011317,-0.1023633 -0.00292,-0.011388 -0.00593,-0.020034 -0.00836,-0.026124 -0.00122,-0.00304 -0.00229,-0.00544 -0.00314,-0.00722 -4.221e-4,-8.901e-4 -7.903e-4,-0.00162 -0.00109,-0.00221 l -4.013e-4,-7.593e-4 -1.573e-4,-2.946e-4 -7.03e-5,-1.262e-4 -3.31e-5,-5.75e-5 c 0,0 -2.9e-5,-5.42e-5 -0.027157,0.015017 z"
     fill="#1C274C"
     id="path8"
     style="fill:#000010;fill-opacity:1;stroke-width:0.0413793"
     inkscape:export-filename="/home/hephaestus/git/CaDoodle-Application/src/main/resources/com/commonwealthrobotics/magnet.png"
     inkscape:export-xdpi="96"
     inkscape:export-ydpi="96" />
  <path
     d="m 2.8897834,3.4901793 c -0.00617,0.033286 -0.014441,0.060728 -0.022887,0.082688 -0.00843,0.021923 -0.01699,0.038272 -0.02369,0.04944 -0.00335,0.00558 -0.00623,0.00986 -0.00839,0.012881 -0.00108,0.00151 -0.00198,0.00271 -0.00267,0.00361 -3.434e-4,4.469e-4 -6.372e-4,8.152e-4 -8.731e-4,0.00111 l -3.103e-4,3.848e-4 -1.242e-4,1.49e-4 -5.38e-5,6.21e-5 -4.55e-5,5.79e-5 c -0.010974,0.013167 -0.030542,0.014946 -0.043709,0.00397 -0.013105,-0.01092 -0.01493,-0.030352 -0.00413,-0.043519 l 1.448e-4,-1.862e-4 c 2.193e-4,-2.814e-4 6.538e-4,-8.524e-4 0.00127,-0.00172 0.00123,-0.00173 0.0032,-0.00462 0.00567,-0.00874 0.00494,-0.00823 0.011897,-0.021364 0.018981,-0.039786 0.00668,-0.017375 0.013519,-0.039555 0.018869,-0.066886 0.00526,-0.026896 0.0091,-0.058783 0.00993,-0.095992 1.117e-4,-0.005 1.696e-4,-0.010101 1.696e-4,-0.015294 0,-0.020777 -9.269e-4,-0.040001 -0.00254,-0.057728 -0.00483,-0.053178 -0.015824,-0.092861 -0.026429,-0.120439 -0.00708,-0.018423 -0.014044,-0.031554 -0.018981,-0.039786 -0.00247,-0.00412 -0.00444,-0.00702 -0.00567,-0.00874 -6.165e-4,-8.628e-4 -0.00105,-0.00143 -0.00127,-0.00172 l -1.448e-4,-1.854e-4 c -0.010796,-0.013165 -0.00897,-0.0326 0.00413,-0.04352 0.013167,-0.010972 0.032735,-0.00919 0.043709,0.00397 l 4.55e-5,5.71e-5 5.38e-5,6.37e-5 1.242e-4,1.494e-4 3.103e-4,3.836e-4 c 2.359e-4,2.938e-4 5.297e-4,6.633e-4 8.731e-4,0.00111 6.91e-4,8.929e-4 0.00159,0.00209 0.00267,0.00361 0.00216,0.00303 0.00504,0.0073 0.00839,0.012885 0.0067,0.011165 0.015261,0.027516 0.02369,0.049438 0.012468,0.032408 0.024559,0.076754 0.030041,0.1342105 0.00195,0.020408 0.00306,0.042472 0.00306,0.06624 0,0 0,0 0,0"
     fill="#1C274C"
     id="path10"
     style="fill:#000010;fill-opacity:1;stroke-width:0.0413793"
     inkscape:export-filename="/home/hephaestus/git/CaDoodle-Application/src/main/resources/com/commonwealthrobotics/magnet.png"
     inkscape:export-xdpi="96"
     inkscape:export-ydpi="96" />
  <path
     d="m 2.9,3.3724138 c 0,0.045343 -0.00405,0.084476 -0.010217,0.1177655 z"
     fill="#1C274C"
     id="path12"
     style="fill:#000010;fill-opacity:1;stroke-width:0.0413793"
     inkscape:export-filename="/home/hephaestus/git/CaDoodle-Application/src/main/resources/com/commonwealthrobotics/magnet.png"
     inkscape:export-xdpi="96"
     inkscape:export-ydpi="96" />
</svg>
