<?xml version="1.0" encoding="UTF-8" standalone="no"?>
<!-- Uploaded to: SVG Repo, www.svgrepo.com, Generator: SVG Repo Mixer Tools -->

<svg
   fill="#000000"
   version="1.1"
   id="Capa_1"
   width="130.01128"
   height="100"
   viewBox="0 0 5.2004507 4"
   xml:space="preserve"
   sodipodi:docname="newRobot.svg"
   inkscape:version="1.4.2 (f4327f4, 2025-05-13)"
   inkscape:export-filename="..\src\main\resources\com\commonwealthrobotics\newRobot.png"
   inkscape:export-xdpi="96"
   inkscape:export-ydpi="96"
   xmlns:inkscape="http://www.inkscape.org/namespaces/inkscape"
   xmlns:sodipodi="http://sodipodi.sourceforge.net/DTD/sodipodi-0.dtd"
   xmlns="http://www.w3.org/2000/svg"
   xmlns:svg="http://www.w3.org/2000/svg"><defs
   id="defs27">
	
</defs><sodipodi:namedview
   id="namedview25"
   pagecolor="#ffffff"
   bordercolor="#000000"
   borderopacity="0.25"
   inkscape:showpageshadow="2"
   inkscape:pageopacity="0.0"
   inkscape:pagecheckerboard="0"
   inkscape:deskcolor="#d1d1d1"
   showgrid="false"
   inkscape:zoom="8.7611792"
   inkscape:cx="55.414915"
   inkscape:cy="66.885974"
   inkscape:window-width="3840"
   inkscape:window-height="1506"
   inkscape:window-x="-11"
   inkscape:window-y="-11"
   inkscape:window-maximized="1"
   inkscape:current-layer="Capa_1" />
<g
   id="g20"
   style="fill:#263d8c;fill-opacity:1;stroke:none;stroke-width:0.04;stroke-dasharray:none;stroke-opacity:1"
   transform="matrix(0.125,0,0,0.125,-0.00803125,0)">
		<path
   d="M 4.058,10.703 C 4.036,10.681 4.01,10.663 3.985,10.644 3.967,10.62 3.95,10.595 3.926,10.572 L 3.152,9.797 c -0.282,-0.282 -0.74,-0.282 -1.021,0 -0.283,0.283 -0.283,0.74 0,1.023 l 0.27,0.27 -0.832,0.833 -0.271,-0.271 c -0.282,-0.282 -0.74,-0.282 -1.023,0 -0.281,0.283 -0.281,0.741 0,1.023 l 0.774,0.774 c 0.042,0.042 0.088,0.075 0.137,0.105 0.003,0.004 0.006,0.008 0.01,0.012 0.352,0.351 0.919,0.351 1.271,0 l 1.592,-1.593 c 0.351,-0.35 0.351,-0.92 -0.001,-1.27 z"
   id="path2"
   style="fill:#263d8c;fill-opacity:1;stroke:none;stroke-width:0.04;stroke-dasharray:none;stroke-opacity:1" />
		<path
   d="m 15.164,29.555 c 0.285,-0.146 0.48,-0.438 0.48,-0.781 0,-0.383 -0.247,-0.707 -0.589,-0.828 0.342,-0.12 0.589,-0.443 0.589,-0.827 0,-0.386 -0.25,-0.71 -0.596,-0.829 0.346,-0.119 0.596,-0.443 0.596,-0.83 0,-0.486 -0.395,-0.88 -0.881,-0.88 H 14.2 c -0.486,0 -0.882,0.396 -0.882,0.88 0,0.387 0.25,0.711 0.597,0.83 -0.347,0.119 -0.597,0.443 -0.597,0.829 0,0.384 0.247,0.707 0.59,0.827 -0.343,0.121 -0.59,0.445 -0.59,0.828 0,0.291 0.145,0.547 0.362,0.709 -1.114,0.278 -1.939,1.283 -1.939,2.482 3.828,0 2.519,0 5.123,0 -0.001,-1.113 -0.71,-2.056 -1.7,-2.41 z"
   id="path4"
   style="fill:#263d8c;fill-opacity:1;stroke:none;stroke-width:0.04;stroke-dasharray:none;stroke-opacity:1" />
		<path
   d="m 21.714,29.518 c 0.218,-0.16 0.361,-0.416 0.361,-0.709 0,-0.383 -0.247,-0.705 -0.59,-0.826 0.344,-0.121 0.59,-0.444 0.59,-0.827 0,-0.386 -0.25,-0.71 -0.597,-0.83 0.347,-0.119 0.597,-0.443 0.597,-0.829 0,-0.487 -0.395,-0.882 -0.882,-0.882 h -0.562 c -0.486,0 -0.881,0.395 -0.881,0.882 0,0.386 0.25,0.71 0.596,0.829 -0.346,0.12 -0.596,0.444 -0.596,0.83 0,0.383 0.247,0.706 0.588,0.827 -0.341,0.121 -0.588,0.443 -0.588,0.826 0,0.342 0.196,0.635 0.48,0.782 -0.989,0.354 -1.699,1.298 -1.699,2.409 2.604,0 1.295,0 5.123,0 0.001,-1.2 -0.825,-2.205 -1.94,-2.482 z"
   id="path6"
   style="fill:#263d8c;fill-opacity:1;stroke:none;stroke-width:0.04;stroke-dasharray:none;stroke-opacity:1" />
		<path
   d="m 31.81,20.477 -0.619,-0.904 c -0.032,-0.049 -0.072,-0.09 -0.114,-0.129 -0.002,-0.004 -0.006,-0.008 -0.008,-0.014 -0.273,-0.399 -0.814,-0.507 -1.221,-0.248 -0.024,-0.072 -0.057,-0.143 -0.102,-0.207 -0.188,-0.276 -0.503,-0.408 -0.813,-0.382 0.137,-0.28 0.127,-0.622 -0.061,-0.896 -0.222,-0.322 -0.613,-0.451 -0.971,-0.355 0.165,-0.287 0.166,-0.654 -0.033,-0.947 -0.191,-0.279 -0.514,-0.412 -0.828,-0.379 0.103,-0.267 0.079,-0.577 -0.096,-0.831 -0.188,-0.275 -0.503,-0.408 -0.812,-0.381 0.137,-0.28 0.127,-0.622 -0.062,-0.896 -0.277,-0.407 -0.834,-0.511 -1.24,-0.232 l -0.473,0.323 c -0.405,0.279 -0.511,0.834 -0.231,1.241 0.188,0.275 0.505,0.408 0.813,0.382 -0.136,0.28 -0.127,0.622 0.062,0.896 0.19,0.28 0.513,0.412 0.828,0.381 -0.104,0.266 -0.079,0.576 0.095,0.83 0.22,0.321 0.613,0.449 0.97,0.354 -0.166,0.288 -0.166,0.656 0.034,0.948 0.189,0.274 0.504,0.407 0.814,0.381 -0.138,0.278 -0.128,0.621 0.062,0.896 0.044,0.064 0.098,0.119 0.154,0.168 -0.403,0.282 -0.506,0.836 -0.228,1.244 0.019,0.026 0.04,0.047 0.062,0.071 0.014,0.028 0.025,0.056 0.045,0.083 l 0.619,0.902 c 0.225,0.33 0.675,0.414 1.004,0.188 0.329,-0.228 0.414,-0.676 0.188,-1.006 l -0.216,-0.315 0.972,-0.664 0.217,0.315 c 0.226,0.329 0.675,0.413 1.004,0.188 0.328,-0.227 0.412,-0.677 0.185,-1.005 z"
   id="path8"
   style="fill:#263d8c;fill-opacity:1;stroke:none;stroke-width:0.04;stroke-dasharray:none;stroke-opacity:1" />
		<path
   d="m 10.771,13.815 c -0.349,-0.349 -0.914,-0.349 -1.263,0 -0.275,0.276 -0.33,0.686 -0.17,1.019 C 9.025,14.724 8.664,14.792 8.413,15.042 8.201,15.254 8.119,15.546 8.165,15.821 8.106,15.813 8.049,15.803 7.988,15.803 7.92,15.803 7.852,15.813 7.786,15.824 7.804,15.574 7.722,15.319 7.531,15.128 7.256,14.852 6.844,14.798 6.511,14.959 6.621,14.645 6.553,14.284 6.303,14.033 6.041,13.771 5.657,13.706 5.335,13.838 5.48,13.51 5.42,13.115 5.15,12.846 4.802,12.497 4.236,12.497 3.887,12.846 L 3.486,13.25 c -0.349,0.349 -0.349,0.914 0,1.263 0.263,0.262 0.646,0.327 0.969,0.196 -0.145,0.327 -0.084,0.723 0.183,0.991 0.276,0.275 0.687,0.33 1.02,0.17 -0.109,0.313 -0.042,0.675 0.208,0.925 0.238,0.238 0.576,0.311 0.879,0.223 0,0.013 -0.003,0.023 -0.003,0.037 0,0.689 0.559,1.25 1.25,1.25 0.69,0 1.25,-0.56 1.25,-1.25 0,-0.039 -0.009,-0.076 -0.012,-0.115 0.295,0.076 0.621,0.002 0.853,-0.229 0.275,-0.276 0.33,-0.687 0.169,-1.019 0.313,0.109 0.674,0.042 0.925,-0.208 0.349,-0.349 0.349,-0.914 0,-1.263 z m -2.78,3.703 c -0.258,0 -0.465,-0.207 -0.465,-0.463 0,-0.257 0.208,-0.466 0.465,-0.466 0.256,0 0.465,0.208 0.465,0.466 0,0.256 -0.208,0.463 -0.465,0.463 z"
   id="path10"
   style="fill:#263d8c;fill-opacity:1;stroke:none;stroke-width:0.04;stroke-dasharray:none;stroke-opacity:1" />
		<path
   d="M 14.122,6.773 V 6.082 c 0,-0.335 -0.271,-0.607 -0.607,-0.607 h -0.692 c -0.335,0 -0.606,0.271 -0.606,0.607 v 0.691 c 0,0.335 0.271,0.608 0.606,0.608 h 0.691 c 0.335,0 0.608,-0.273 0.608,-0.608 z"
   id="path12"
   style="fill:#263d8c;fill-opacity:1;stroke:none;stroke-width:0.04;stroke-dasharray:none;stroke-opacity:1" />
		<path
   d="m 21.538,6.084 v 0.691 c 0,0.335 0.271,0.608 0.606,0.608 h 0.691 c 0.335,0 0.606,-0.272 0.606,-0.608 V 6.084 c 0,-0.335 -0.271,-0.607 -0.606,-0.607 h -0.691 c -0.335,0 -0.606,0.272 -0.606,0.607 z"
   id="path14"
   style="fill:#263d8c;fill-opacity:1;stroke:none;stroke-width:0.04;stroke-dasharray:none;stroke-opacity:1" />
		<path
   d="m 17.711,16.314 c -0.866,-0.028 -1.593,0.649 -1.623,1.517 -0.03,0.866 0.647,1.593 1.516,1.623 0.867,0.028 1.593,-0.649 1.622,-1.517 0.031,-0.865 -0.646,-1.591 -1.515,-1.623 z m -0.073,2.166 c -0.329,-0.012 -0.586,-0.289 -0.575,-0.616 0.012,-0.329 0.287,-0.587 0.616,-0.575 0.329,0.011 0.586,0.287 0.575,0.616 -0.011,0.329 -0.287,0.587 -0.616,0.575 z"
   id="path16"
   style="fill:#263d8c;fill-opacity:1;stroke:none;stroke-width:0.04;stroke-dasharray:none;stroke-opacity:1" />
		<path
   d="m 22.416,12.292 h -2.123 c 0.068,-0.193 0.108,-0.4 0.108,-0.617 0,-0.229 -0.044,-0.449 -0.121,-0.651 h 1.517 c 0.685,0 1.24,-0.555 1.24,-1.24 V 8.623 h 0.159 c 0.821,0 1.488,-0.667 1.488,-1.488 v -1.41 c 0,-0.82 -0.667,-1.488 -1.488,-1.488 H 22.942 C 22.758,3.783 22.315,3.463 21.796,3.463 h -2.179 l 0.695,-1.959 c 0.021,0.002 0.042,0.006 0.063,0.006 0.417,0 0.754,-0.338 0.754,-0.754 0,-0.417 -0.338,-0.754 -0.754,-0.754 -0.416,0 -0.753,0.337 -0.753,0.754 0,0.263 0.135,0.494 0.339,0.628 L 19.222,3.463 H 17.83 V 3.46 H 16.436 L 15.699,1.382 C 15.902,1.247 16.038,1.016 16.038,0.754 16.038,0.337 15.7,0 15.284,0 c -0.416,0 -0.755,0.337 -0.755,0.754 0,0.416 0.338,0.754 0.755,0.754 0.021,0 0.042,-0.004 0.062,-0.007 l 0.696,1.959 h -2.181 c -0.52,0 -0.962,0.32 -1.146,0.774 h -0.252 c -0.82,0 -1.487,0.667 -1.487,1.487 v 1.41 c 0,0.82 0.667,1.487 1.487,1.487 h 0.16 V 9.78 c 0,0.685 0.555,1.24 1.238,1.24 h 1.517 c -0.077,0.202 -0.121,0.42 -0.121,0.65 0,0.218 0.04,0.426 0.109,0.62 h -2.465 c -0.685,0 -1.239,0.555 -1.239,1.24 v 9.202 c 0,0.686 0.555,1.24 1.239,1.24 h 9.514 c 0.685,0 1.239,-0.555 1.239,-1.24 V 13.53 C 23.655,12.846 23.1,12.292 22.416,12.292 Z m 1.771,-6.567 v 1.41 c 0,0.547 -0.444,0.992 -0.992,0.992 h -1.409 c -0.548,0 -0.992,-0.445 -0.992,-0.992 v -1.41 c 0,-0.547 0.444,-0.992 0.992,-0.992 h 1.409 c 0.548,0 0.992,0.445 0.992,0.992 z M 11.471,7.132 v -1.41 c 0,-0.547 0.445,-0.991 0.992,-0.991 h 1.41 c 0.546,0 0.99,0.444 0.99,0.991 v 1.41 c 0,0.546 -0.443,0.991 -0.99,0.991 h -1.41 C 11.917,8.124 11.471,7.679 11.471,7.132 Z m 5.011,1.193 h 1.348 v 0.002 h 1.347 c 0.517,0 0.936,0.325 0.936,0.727 0,0.401 -0.418,0.727 -0.936,0.727 H 17.83 V 9.78 h -1.348 c -0.517,0 -0.936,-0.326 -0.936,-0.728 0,-0.401 0.419,-0.727 0.936,-0.727 z m 4.533,10.01 c -0.003,0.082 -0.072,0.146 -0.154,0.144 l -0.419,-0.014 c -0.084,0.396 -0.253,0.773 -0.495,1.102 l 0.285,0.306 c 0.057,0.06 0.053,0.153 -0.007,0.21 l -0.517,0.482 c -0.028,0.027 -0.067,0.043 -0.107,0.041 -0.04,-0.002 -0.077,-0.019 -0.104,-0.047 L 19.22,20.261 c -0.347,0.231 -0.742,0.386 -1.155,0.448 l -0.014,0.413 c -0.003,0.083 -0.072,0.146 -0.154,0.144 L 17.19,21.244 C 17.108,21.24 17.044,21.171 17.045,21.09 l 0.014,-0.401 c -0.411,-0.082 -0.8,-0.256 -1.14,-0.508 l -0.278,0.26 c -0.061,0.057 -0.155,0.054 -0.211,-0.006 l -0.483,-0.519 c -0.053,-0.058 -0.05,-0.156 0.009,-0.21 l 0.271,-0.254 c -0.234,-0.355 -0.388,-0.758 -0.448,-1.18 L 14.424,18.26 c -0.082,-0.003 -0.146,-0.07 -0.145,-0.154 l 0.023,-0.707 c 0.003,-0.082 0.072,-0.146 0.154,-0.144 l 0.356,0.013 c 0.089,-0.418 0.271,-0.812 0.533,-1.152 l -0.247,-0.265 c -0.025,-0.028 -0.041,-0.066 -0.04,-0.106 10e-4,-0.04 0.019,-0.077 0.047,-0.104 l 0.518,-0.484 c 0.061,-0.056 0.153,-0.052 0.21,0.007 l 0.254,0.273 c 0.354,-0.225 0.752,-0.37 1.165,-0.424 l 0.013,-0.363 c 0.003,-0.082 0.071,-0.146 0.153,-0.144 l 0.708,0.024 c 0.082,0.003 0.146,0.072 0.143,0.154 l -0.012,0.375 c 0.404,0.09 0.785,0.268 1.114,0.52 l 0.291,-0.271 c 0.027,-0.027 0.066,-0.042 0.106,-0.04 0.04,10e-4 0.077,0.018 0.104,0.047 l 0.482,0.518 c 0.057,0.06 0.054,0.154 -0.007,0.21 l -0.297,0.276 c 0.221,0.348 0.366,0.738 0.424,1.142 l 0.418,0.015 c 0.082,0.002 0.147,0.071 0.145,0.153 z"
   id="path18"
   style="fill:#263d8c;fill-opacity:1;stroke:none;stroke-width:0.04;stroke-dasharray:none;stroke-opacity:1" />
	</g>
<g
   id="g1"
   transform="translate(-0.00913119,-0.10500869)"><rect
     style="fill:#268c33;fill-opacity:1;stroke-width:0.0773054;stroke-dasharray:none"
     id="rect380"
     width="2.24"
     height="0.60000002"
     x="2.9695823"
     y="1.2005851" /><rect
     style="fill:#268c33;fill-opacity:1;stroke-width:0.0204537;stroke-dasharray:none"
     id="rect382"
     width="0.60000002"
     height="2.24"
     x="3.7895823"
     y="0.38058516" /></g></svg>
