<?xml version="1.0" encoding="UTF-8" standalone="no"?>
<!-- Uploaded to: SVG Repo, www.svgrepo.com, Generator: SVG Repo Mixer Tools -->

<svg
   width="800px"
   height="800px"
   viewBox="0 0 24 24"
   fill="none"
   version="1.1"
   id="svg6"
   sodipodi:docname="notes-svgrepo-com.svg"
   inkscape:version="1.1.2 (0a00cf5339, 2022-02-04)"
   xmlns:inkscape="http://www.inkscape.org/namespaces/inkscape"
   xmlns:sodipodi="http://sodipodi.sourceforge.net/DTD/sodipodi-0.dtd"
   xmlns="http://www.w3.org/2000/svg"
   xmlns:svg="http://www.w3.org/2000/svg">
  <defs
     id="defs10" />
  <sodipodi:namedview
     id="namedview8"
     pagecolor="#ffffff"
     bordercolor="#000000"
     borderopacity="0.25"
     inkscape:pageshadow="2"
     inkscape:pageopacity="0.0"
     inkscape:pagecheckerboard="0"
     showgrid="false"
     inkscape:zoom="0.8275"
     inkscape:cx="400"
     inkscape:cy="399.39577"
     inkscape:window-width="1433"
     inkscape:window-height="938"
     inkscape:window-x="0"
     inkscape:window-y="0"
     inkscape:window-maximized="1"
     inkscape:current-layer="svg6" />
  <path
     d="m 2.0339592,2.5722603 0.023295,0.086942 c 0.027193,0.101482 0.04079,0.1522275 0.071613,0.1851383 0.024338,0.025985 0.055835,0.04417 0.090508,0.052253 0.043913,0.010238 0.094656,-0.00336 0.1961434,-0.030553 0.101482,-0.027191 0.1522275,-0.040786 0.1851382,-0.071609 0.00273,-0.00256 0.00537,-0.0052 0.00793,-0.00791 -0.01504,-0.00126 -0.030211,-0.00368 -0.045629,-0.00675 -0.031327,-0.00623 -0.068549,-0.016206 -0.1125707,-0.028001 l -0.00481,-0.00129 -0.00112,-2.97e-4 C 2.3965727,2.7373542 2.3565518,2.7266074 2.3245978,2.7150641 2.290994,2.7029268 2.2604608,2.6879633 2.2345336,2.6636796 2.1988034,2.6302153 2.1737996,2.5869043 2.162683,2.539228 2.154613,2.504634 2.156923,2.470706 2.1632118,2.4355363 c 0.00603,-0.033703 0.01685,-0.074093 0.029819,-0.1224881 v -9e-7 l 0.024049,-0.089753 8.461e-4,-0.00316 c -0.086431,0.023283 -0.1319239,0.037058 -0.1622623,0.065473 -0.025986,0.024338 -0.044171,0.055835 -0.052255,0.090508 -0.010239,0.043914 0.00336,0.094655 0.03055,0.1961416 z"
     fill="#1C274C"
     id="path2"
     style="fill:#000009;fill-opacity:1;stroke-width:0.0450031"
     inkscape:export-filename="/home/hephaestus/git/CaDoodle-Application/src/main/resources/com/commonwealthrobotics/notes.png"
     inkscape:export-xdpi="96"
     inkscape:export-ydpi="96" />
  <path
     fill-rule="evenodd"
     clip-rule="evenodd"
     d="m 2.8473778,2.3922209 -0.023298,0.086942 c -0.027191,0.1014865 -0.040791,0.1522275 -0.071613,0.1851382 -0.024338,0.025985 -0.055835,0.044171 -0.090506,0.052253 -0.00433,0.00101 -0.00873,0.00179 -0.01324,0.00234 -0.041182,0.00508 -0.091428,-0.00838 -0.1829017,-0.032893 -0.1014865,-0.027195 -0.1522297,-0.040791 -0.1851396,-0.071613 -0.025986,-0.024338 -0.04417,-0.055835 -0.052255,-0.09051 -0.010239,-0.043914 0.00336,-0.094655 0.03055,-0.1961401 l 0.023295,-0.08694 c 0.00391,-0.014591 0.00754,-0.028144 0.01098,-0.040735 0.020479,-0.074977 0.034242,-0.1162263 0.060633,-0.1444032 0.024337,-0.025986 0.055835,-0.044171 0.09051,-0.052255 0.04391,-0.010239 0.094655,0.00336 0.1961415,0.03055 0.101482,0.027193 0.1522275,0.040789 0.1851383,0.071613 0.025985,0.024338 0.04417,0.055835 0.052253,0.090508 0.010238,0.043913 -0.00336,0.094656 -0.030548,0.1961402 z M 2.4073869,2.3512901 c 0.00482,-0.018006 0.023334,-0.028691 0.04134,-0.023867 l 0.217347,0.05824 c 0.018006,0.00482 0.028689,0.02333 0.023865,0.041335 -0.00482,0.018006 -0.02333,0.028689 -0.041335,0.023865 L 2.4312521,2.3926259 c -0.018006,-0.00482 -0.02869,-0.02333 -0.023865,-0.041336 z m -0.034958,0.1303924 c 0.00482,-0.018006 0.02333,-0.028689 0.041335,-0.023865 l 0.13041,0.034945 c 0.018006,0.00482 0.02869,0.02333 0.023865,0.041335 -0.00482,0.018006 -0.02333,0.028694 -0.041335,0.02387 l -0.13041,-0.034945 c -0.018006,-0.00482 -0.028694,-0.023334 -0.023865,-0.04134 z"
     fill="#1C274C"
     id="path4"
     style="fill:#000009;fill-opacity:1;stroke-width:0.0450031"
     inkscape:export-filename="/home/hephaestus/git/CaDoodle-Application/src/main/resources/com/commonwealthrobotics/notes.png"
     inkscape:export-xdpi="96"
     inkscape:export-ydpi="96" />
</svg>
