<?xml version="1.0" encoding="UTF-8" standalone="no"?>
<!-- Uploaded to: SVG Repo, www.svgrepo.com, Generator: SVG Repo Mixer Tools -->

<svg
   width="800px"
   height="800px"
   viewBox="0 0 24 24"
   fill="none"
   version="1.1"
   id="svg6"
   sodipodi:docname="trash-bin-trash-svgrepo-com.svg"
   inkscape:version="1.2.2 (b0a8486541, 2022-12-01)"
   inkscape:export-filename="../src/main/resources/com/commonwealthrobotics/trash.png"
   inkscape:export-xdpi="96"
   inkscape:export-ydpi="96"
   xmlns:inkscape="http://www.inkscape.org/namespaces/inkscape"
   xmlns:sodipodi="http://sodipodi.sourceforge.net/DTD/sodipodi-0.dtd"
   xmlns="http://www.w3.org/2000/svg"
   xmlns:svg="http://www.w3.org/2000/svg">
  <defs
     id="defs10" />
  <sodipodi:namedview
     id="namedview8"
     pagecolor="#ffffff"
     bordercolor="#000000"
     borderopacity="0.25"
     inkscape:pageshadow="2"
     inkscape:pageopacity="0.0"
     inkscape:pagecheckerboard="0"
     showgrid="false"
     inkscape:zoom="0.8275"
     inkscape:cx="401.81269"
     inkscape:cy="400.60423"
     inkscape:window-width="1737"
     inkscape:window-height="1133"
     inkscape:window-x="0"
     inkscape:window-y="0"
     inkscape:window-maximized="1"
     inkscape:current-layer="svg6"
     inkscape:showpageshadow="2"
     inkscape:deskcolor="#d1d1d1" />
  <path
     d="m 3,2.1973659 c 0,-0.0218 0.015542,-0.039473 0.034714,-0.039473 l 0.1198902,-2.12e-5 c 0.023821,-6.867e-4 0.044835,-0.01791 0.052941,-0.043389 2.133e-4,-6.7e-4 4.581e-4,-0.0015 0.00134,-0.00449 l 0.00517,-0.017626 c 0.00316,-0.010807 0.00592,-0.020222 0.00977,-0.028637 0.015225,-0.033246 0.043395,-0.056333 0.075947,-0.062244 0.00824,-0.0015 0.016966,-0.00149 0.026983,-0.00148 H 3.483257 c 0.010017,-7.2e-6 0.018742,-1.35e-5 0.026982,0.00148 0.032553,0.00591 0.060723,0.028997 0.075946,0.062244 0.00386,0.00842 0.00661,0.017831 0.00977,0.028637 l 0.00517,0.017626 c 8.775e-4,0.003 0.00113,0.00382 0.00134,0.00449 0.00811,0.025479 0.033291,0.042723 0.057109,0.04341 h 0.115717 c 0.01917,0 0.034713,0.017673 0.034713,0.039473 0,0.021801 -0.015543,0.039473 -0.034713,0.039473 H 3.0347142 C 3.015542,2.2368392 3,2.2191664 3,2.1973659 Z"
     fill="#1c274c"
     id="path2"
     style="stroke-width:0.0449998;fill:#263d8c;fill-opacity:1"
     inkscape:export-filename="/home/hephaestus/git/CaDoodle-Application/src/main/resources/com/commonwealthrobotics/trash.png"
     inkscape:export-xdpi="96"
     inkscape:export-ydpi="96" />
  <path
     fill-rule="evenodd"
     clip-rule="evenodd"
     d="m 3.3868,2.8999981 h 0.036396 c 0.1252209,0 0.1878336,0 0.2285404,-0.039865 C 3.6924475,2.8202675 3.69661,2.7548739 3.7049394,2.624082 L 3.7169408,2.4356275 C 3.7214633,2.3646629 3.7237223,2.3291823 3.7032969,2.3066977 3.682876,2.2842132 3.6483882,2.2842132 3.579417,2.2842132 H 3.2305806 c -0.068974,0 -0.1034616,0 -0.1238839,0.022485 -0.020422,0.022485 -0.018162,0.057965 -0.013643,0.1289298 l 0.012002,0.188454 c 0.00833,0.1307919 0.012495,0.1961855 0.053203,0.2360508 0.040709,0.039865 0.1033195,0.039865 0.228541,0.039865 z M 3.3260818,2.4584829 c -0.00185,-0.019521 -0.018394,-0.033768 -0.036942,-0.031815 -0.018547,0.00195 -0.032079,0.019363 -0.030224,0.038884 l 0.0225,0.2368428 c 0.00185,0.019521 0.018394,0.033768 0.036939,0.031815 0.018549,-0.00195 0.03208,-0.019363 0.030226,-0.038884 z M 3.5208543,2.426668 c 0.018549,0.00195 0.03208,0.019363 0.030226,0.038884 l -0.0225,0.2368428 c -0.00185,0.019521 -0.018396,0.033768 -0.03694,0.031815 -0.018549,-0.00195 -0.03208,-0.019363 -0.030226,-0.038884 l 0.0225,-0.2368428 c 0.00185,-0.019521 0.018396,-0.033768 0.03694,-0.031815 z"
     fill="#1c274c"
     id="path4"
     style="stroke-width:0.0449998;fill:#263d8c;fill-opacity:1"
     inkscape:export-filename="/home/hephaestus/git/CaDoodle-Application/src/main/resources/com/commonwealthrobotics/trash.png"
     inkscape:export-xdpi="96"
     inkscape:export-ydpi="96" />
</svg>
