<?xml version="1.0" encoding="UTF-8" standalone="no"?>
<!-- Uploaded to: SVG Repo, www.svgrepo.com, Generator: SVG Repo Mixer Tools -->

<svg
   width="800px"
   height="800px"
   viewBox="0 0 24 24"
   fill="none"
   version="1.1"
   id="svg4"
   sodipodi:docname="undo-left-round-svgrepo-com.svg"
   inkscape:version="1.2.2 (b0a8486541, 2022-12-01)"
   inkscape:export-filename="../src/main/resources/com/commonwealthrobotics/back.png"
   inkscape:export-xdpi="96"
   inkscape:export-ydpi="96"
   xmlns:inkscape="http://www.inkscape.org/namespaces/inkscape"
   xmlns:sodipodi="http://sodipodi.sourceforge.net/DTD/sodipodi-0.dtd"
   xmlns="http://www.w3.org/2000/svg"
   xmlns:svg="http://www.w3.org/2000/svg">
  <defs
     id="defs8" />
  <sodipodi:namedview
     id="namedview6"
     pagecolor="#ffffff"
     bordercolor="#000000"
     borderopacity="0.25"
     inkscape:pageshadow="2"
     inkscape:pageopacity="0.0"
     inkscape:pagecheckerboard="0"
     showgrid="false"
     inkscape:zoom="0.8275"
     inkscape:cx="401.81269"
     inkscape:cy="400.60423"
     inkscape:window-width="1737"
     inkscape:window-height="1133"
     inkscape:window-x="0"
     inkscape:window-y="0"
     inkscape:window-maximized="1"
     inkscape:current-layer="svg4"
     inkscape:showpageshadow="2"
     inkscape:deskcolor="#d1d1d1" />
  <path
     fill-rule="evenodd"
     clip-rule="evenodd"
     d="m 3.4701337,3.2612997 c 0.015063,0.015063 0.015063,0.039485 0,0.054548 l -0.08844,0.08844 h 0.4725947 c 0.1633166,0 0.2957143,0.1323957 0.2957143,0.2957143 0,0.1633166 -0.1323977,0.2957144 -0.2957143,0.2957144 H 3.4942886 c -0.021303,0 -0.038571,-0.01727 -0.038571,-0.038571 0,-0.021302 0.017269,-0.038571 0.038571,-0.038571 h 0.3599996 c 0.1207131,0 0.2185714,-0.097858 0.2185714,-0.2185715 0,-0.1207136 -0.097858,-0.2185714 -0.2185714,-0.2185714 H 3.3816935 l 0.08844,0.08844 c 0.015063,0.015063 0.015063,0.039483 0,0.054547 -0.015063,0.015063 -0.039485,0.015063 -0.054548,0 L 3.2612997,3.4701337 c -0.015063,-0.015063 -0.015063,-0.039485 0,-0.054548 l 0.1542857,-0.154286 c 0.015063,-0.015063 0.039485,-0.015063 0.054548,0 z"
     fill="#1c274c"
     id="path2"
     style="stroke-width:0.0514286;fill:#263d8c;fill-opacity:1"
     inkscape:export-filename="/home/hephaestus/git/CaDoodle-Application/src/main/resources/com/commonwealthrobotics/back.png"
     inkscape:export-xdpi="96"
     inkscape:export-ydpi="96" />
</svg>
