<?xml version="1.0" encoding="UTF-8" standalone="no"?>
<!-- Uploaded to: SVG Repo, www.svgrepo.com, Generator: SVG Repo Mixer Tools -->

<svg
   width="800px"
   height="800px"
   viewBox="0 0 24 24"
   fill="none"
   version="1.1"
   id="svg10"
   sodipodi:docname="widget-add-svgrepo-com.svg"
   inkscape:export-filename="/home/hephaestus/git/CaDoodle-Application/src/main/resources/com/commonwealthrobotics/newFile.png"
   inkscape:export-xdpi="96"
   inkscape:export-ydpi="96"
   inkscape:version="1.1.2 (0a00cf5339, 2022-02-04)"
   xmlns:inkscape="http://www.inkscape.org/namespaces/inkscape"
   xmlns:sodipodi="http://sodipodi.sourceforge.net/DTD/sodipodi-0.dtd"
   xmlns="http://www.w3.org/2000/svg"
   xmlns:svg="http://www.w3.org/2000/svg">
  <defs
     id="defs14" />
  <sodipodi:namedview
     id="namedview12"
     pagecolor="#ffffff"
     bordercolor="#000000"
     borderopacity="0.25"
     inkscape:pageshadow="2"
     inkscape:pageopacity="0.0"
     inkscape:pagecheckerboard="0"
     showgrid="false"
     inkscape:zoom="0.8275"
     inkscape:cx="400.60423"
     inkscape:cy="399.39577"
     inkscape:window-width="1433"
     inkscape:window-height="938"
     inkscape:window-x="0"
     inkscape:window-y="0"
     inkscape:window-maximized="1"
     inkscape:current-layer="svg10" />
  <path
     fill-rule="evenodd"
     clip-rule="evenodd"
     d="M17.5 2.75C17.9142 2.75 18.25 3.08579 18.25 3.5V5.75H20.5C20.9142 5.75 21.25 6.08579 21.25 6.5C21.25 6.91421 20.9142 7.25 20.5 7.25H18.25V9.5C18.25 9.91421 17.9142 10.25 17.5 10.25C17.0858 10.25 16.75 9.91421 16.75 9.5V7.25H14.5C14.0858 7.25 13.75 6.91421 13.75 6.5C13.75 6.08579 14.0858 5.75 14.5 5.75H16.75V3.5C16.75 3.08579 17.0858 2.75 17.5 2.75Z"
     fill="#1C274C"
     id="path2"
     style="fill:#263d8c;fill-opacity:1"
     inkscape:export-filename="/home/hephaestus/git/CaDoodle-Application/src/main/resources/com/commonwealthrobotics/newFile.png"
     inkscape:export-xdpi="96"
     inkscape:export-ydpi="96" />
  <path
     d="M2 6.5C2 4.37868 2 3.31802 2.65901 2.65901C3.31802 2 4.37868 2 6.5 2C8.62132 2 9.68198 2 10.341 2.65901C11 3.31802 11 4.37868 11 6.5C11 8.62132 11 9.68198 10.341 10.341C9.68198 11 8.62132 11 6.5 11C4.37868 11 3.31802 11 2.65901 10.341C2 9.68198 2 8.62132 2 6.5Z"
     fill="#1C274C"
     id="path4"
     style="fill:#263d8c;fill-opacity:1"
     inkscape:export-filename="/home/hephaestus/git/CaDoodle-Application/src/main/resources/com/commonwealthrobotics/newFile.png"
     inkscape:export-xdpi="96"
     inkscape:export-ydpi="96" />
  <path
     d="M13 17.5C13 15.3787 13 14.318 13.659 13.659C14.318 13 15.3787 13 17.5 13C19.6213 13 20.682 13 21.341 13.659C22 14.318 22 15.3787 22 17.5C22 19.6213 22 20.682 21.341 21.341C20.682 22 19.6213 22 17.5 22C15.3787 22 14.318 22 13.659 21.341C13 20.682 13 19.6213 13 17.5Z"
     fill="#1C274C"
     id="path6"
     style="fill:#263d8c;fill-opacity:1"
     inkscape:export-filename="/home/hephaestus/git/CaDoodle-Application/src/main/resources/com/commonwealthrobotics/newFile.png"
     inkscape:export-xdpi="96"
     inkscape:export-ydpi="96" />
  <path
     d="M2 17.5C2 15.3787 2 14.318 2.65901 13.659C3.31802 13 4.37868 13 6.5 13C8.62132 13 9.68198 13 10.341 13.659C11 14.318 11 15.3787 11 17.5C11 19.6213 11 20.682 10.341 21.341C9.68198 22 8.62132 22 6.5 22C4.37868 22 3.31802 22 2.65901 21.341C2 20.682 2 19.6213 2 17.5Z"
     fill="#1C274C"
     id="path8"
     style="fill:#263d8c;fill-opacity:1"
     inkscape:export-filename="/home/hephaestus/git/CaDoodle-Application/src/main/resources/com/commonwealthrobotics/newFile.png"
     inkscape:export-xdpi="96"
     inkscape:export-ydpi="96" />
</svg>
